<?xml version="1.0" standalone="no"?>
<!DOCTYPE svg PUBLIC "-//W3C//DTD SVG 1.1//EN" "http://www.w3.org/Graphics/SVG/1.1/DTD/svg11.dtd" >
<svg xmlns="http://www.w3.org/2000/svg">
<metadata></metadata>
<defs>
<font id="atrament_stdregular" horiz-adv-x="675" >
<font-face units-per-em="2048" ascent="1638" descent="-410" />
<missing-glyph horiz-adv-x="395" />
<glyph unicode="&#xfb01;" horiz-adv-x="778" d="M10 1053v43q0 43 45 43h88v235q0 135 61.5 199.5t217.5 64.5h131q45 0 45 -43v-43q0 -45 -45 -45h-131q-70 0 -95.5 -33t-25.5 -102v-233h352q43 0 43 -43v-1051q0 -45 -43 -45h-69q-43 0 -43 45v963h-240v-963q0 -45 -45 -45h-68q-45 0 -45 45v963h-88q-45 0 -45 45z " />
<glyph unicode="&#xfb02;" horiz-adv-x="778" d="M10 1053v43q0 43 45 43h88v235q0 135 61.5 199.5t217.5 64.5h231q43 0 43 -43v-1550q0 -45 -43 -45h-69q-43 0 -43 45v1462h-119q-70 0 -95.5 -33t-25.5 -102v-233h115q43 0 43 -43v-43q0 -45 -43 -45h-115v-963q0 -45 -45 -45h-68q-45 0 -45 45v963h-88q-45 0 -45 45z " />
<glyph unicode="&#xfb03;" horiz-adv-x="1175" d="M10 1053v43q0 43 45 43h88v125q0 136 61.5 201t217.5 65h151q28 55 85.5 81.5t158.5 26.5h133q43 0 43 -43v-43q0 -45 -43 -45h-133q-70 0 -95.5 -33t-25.5 -102v-233h353q45 0 45 -43v-1051q0 -45 -45 -45h-68q-45 0 -45 45v963h-240v-963q0 -45 -43 -45h-69 q-43 0 -43 45v963h-240v-963q0 -45 -45 -45h-68q-45 0 -45 45v963h-88q-45 0 -45 45zM301 1139h240v260h-119q-70 0 -95.5 -33t-25.5 -104v-123z" />
<glyph unicode="&#xfb04;" horiz-adv-x="1175" d="M10 1053v43q0 43 45 43h88v125q0 136 61.5 201t217.5 65h151q28 55 85.5 81.5t158.5 26.5h232q45 0 45 -43v-1550q0 -45 -45 -45h-68q-45 0 -45 45v1462h-119q-70 0 -95.5 -33t-25.5 -102v-233h115q45 0 45 -43v-43q0 -45 -45 -45h-115v-963q0 -45 -43 -45h-69 q-43 0 -43 45v963h-240v-963q0 -45 -45 -45h-68q-45 0 -45 45v963h-88q-45 0 -45 45zM301 1139h240v260h-119q-70 0 -95.5 -33t-25.5 -104v-123z" />
<glyph horiz-adv-x="2048" />
<glyph horiz-adv-x="2048" />
<glyph unicode="&#xd;" horiz-adv-x="2048" />
<glyph unicode=" "  horiz-adv-x="395" />
<glyph unicode="&#x09;" horiz-adv-x="395" />
<glyph unicode="&#xa0;" horiz-adv-x="395" />
<glyph unicode="!" horiz-adv-x="473" d="M127 100q0 48 31 78.5t80 30.5q47 0 77.5 -31t30.5 -78q0 -49 -30 -79.5t-78 -30.5q-50 0 -80.5 30.5t-30.5 79.5zM139 1440q0 43 45 43h105q45 0 45 -43l-29 -1004q0 -45 -43 -45h-49q-42 0 -45 45z" />
<glyph unicode="&#x22;" horiz-adv-x="618" d="M82 1440q0 43 45 43h98q46 0 43 -43l-32 -441q0 -43 -43 -43h-33q-43 0 -43 43zM348 1440q0 43 45 43h99q46 0 43 -43l-33 -441q0 -43 -43 -43h-33q-43 0 -43 43z" />
<glyph unicode="#" horiz-adv-x="901" d="M0 463v53q0 43 45 43h129l80 365h-121q-45 0 -45 43v53q0 43 45 43h152l84 385q6 35 41 35h61q26 0 34 -16.5t3 -39.5l-80 -364h182l84 385q9 35 41 35h62q26 0 35 -16.5t4 -39.5l-82 -364h102q45 0 45 -43v-53q0 -43 -45 -43h-131l-80 -365h123q45 0 45 -43v-53 q0 -43 -45 -43h-152l-84 -385q-9 -35 -40 -35h-62q-26 0 -35 16t-4 39l80 365h-180l-84 -385q-9 -35 -41 -35h-62q-26 0 -34.5 16t-3.5 39l77 365h-98q-45 0 -45 43zM319 559h181l80 365h-181z" />
<glyph unicode="$" horiz-adv-x="784" d="M78 291v194q0 45 43 45h84q43 0 43 -45v-194q0 -80 30 -119t113 -39t114.5 39.5t31.5 118.5q0 101 -21 157.5t-90 129.5l-213 223q-73 72 -104 154.5t-31 236.5q0 137 52 210t185 87v168q0 43 45 43h64q45 0 45 -43v-168q132 -14 185 -87t53 -210v-195q0 -43 -43 -43h-84 q-43 0 -43 43v195q0 79 -31.5 118.5t-114.5 39.5t-113 -39t-30 -119q0 -103 20.5 -159t89.5 -128l213 -223q74 -74 105 -156t31 -235q0 -138 -53 -210.5t-185 -86.5v-168q0 -43 -45 -43h-64q-45 0 -45 43v168q-133 14 -185 86t-52 211z" />
<glyph unicode="%" horiz-adv-x="1071" d="M41 897v430q0 84 45 123t141 39q97 0 142 -39.5t45 -122.5v-430q0 -82 -45.5 -122t-141.5 -40t-141 40t-45 122zM170 897q0 -61 57 -61q58 0 58 61v430q0 62 -58 62q-57 0 -57 -62v-430zM190 17.5q-8 16.5 0 33.5l553 1407q13 25 39 25h68q21 -1 29 -16.5t0 -34.5 l-553 -1407q-12 -25 -39 -25h-68q-21 1 -29 17.5zM657 156v430q0 83 45 122.5t142 39.5q96 0 141 -39t45 -123v-430q0 -82 -45 -122t-141 -40t-141.5 40t-45.5 122zM786 156q0 -62 58 -62q57 0 57 62v430q0 31 -13 46t-44 15q-58 0 -58 -61v-430z" />
<glyph unicode="&#x26;" horiz-adv-x="872" d="M82 291v145q0 128 39.5 203t140.5 106v11q-101 29 -140.5 104t-39.5 205v127q0 76 15 129.5t50 93.5t97 59t153 19q177 0 246.5 -73.5t69.5 -227.5v-86q0 -45 -45 -45h-82q-45 0 -45 45v86q0 80 -30.5 119t-113.5 39t-113 -39t-30 -119v-184q0 -96 35 -140.5t135 -44.5 h405q43 0 43 -45v-55q0 -43 -43 -43h-116v-389q0 -154 -69.5 -227.5t-246.5 -73.5q-91 0 -153 19t-97 59t-50 93.5t-15 129.5zM254 291q0 -80 30 -119t113 -39t113.5 39t30.5 119v389h-117q-99 0 -134.5 -45.5t-35.5 -140.5v-203z" />
<glyph unicode="'" horiz-adv-x="352" d="M82 1440q0 43 45 43h98q46 0 43 -43l-32 -441q0 -43 -43 -43h-33q-43 0 -43 43z" />
<glyph unicode="(" horiz-adv-x="534" d="M123 741q0 502 211 947q14 32 49 32h92q26 0 35 -21.5t-2 -43.5q-100 -198 -155.5 -432.5t-55.5 -481.5t55.5 -481t155.5 -432q11 -22 2 -44t-35 -22h-92q-35 0 -49 33q-211 445 -211 946z" />
<glyph unicode=")" horiz-adv-x="534" d="M24.5 -216q-8.5 22 2.5 44q100 198 155.5 432t55.5 481t-55.5 481.5t-155.5 432.5q-11 22 -2.5 43.5t34.5 21.5h93q35 0 49 -32q211 -445 211 -947q0 -501 -211 -946q-14 -33 -49 -33h-93q-26 0 -34.5 22z" />
<glyph unicode="*" horiz-adv-x="724" d="M49 1004q-17 33 12 51l218 88l-218 86q-31 19 -12 51l37 63q18 35 51 15l182 -146l-32 232q0 39 39 39h73q40 0 37 -39l-35 -232l187 146q33 20 51 -15l37 -63q20 -33 -14 -51l-220 -86l220 -88q32 -17 14 -51l-37 -64q-18 -34 -51 -14l-187 145l35 -231q3 -39 -37 -39 h-73q-39 0 -39 39l35 231l-185 -145q-33 -20 -51 14z" />
<glyph unicode="+" horiz-adv-x="860" d="M82 717v55q0 43 45 43h231v234q0 43 45 43h56q43 0 43 -43v-234h233q43 0 43 -43v-55q0 -45 -43 -45h-233v-232q0 -45 -43 -45h-56q-45 0 -45 45v232h-231q-45 0 -45 45z" />
<glyph unicode="," horiz-adv-x="393" d="M92 -209l23 399q6 41 47 41h106q23 0 34 -14t5 -37l-100 -395q-8 -41 -45 -41h-29q-47 0 -41 47z" />
<glyph unicode="-" horiz-adv-x="544" d="M41 545v55q0 43 45 43h375q43 0 43 -43v-55q0 -45 -43 -45h-375q-45 0 -45 45z" />
<glyph unicode="." horiz-adv-x="393" d="M82 104q0 51 32 83t83 32t82.5 -32t31.5 -83t-31.5 -82.5t-82.5 -31.5t-83 31.5t-32 82.5z" />
<glyph unicode="/" horiz-adv-x="573" d="M-39 -182l510 1868q6 34 41 34h61q26 0 35 -16.5t2 -38.5l-508 -1868q-9 -35 -41 -35h-61q-26 0 -36 17t-3 39z" />
<glyph unicode="0" d="M82 233v672q0 125 56.5 184.5t199.5 59.5t199.5 -59.5t56.5 -184.5v-672q0 -125 -56.5 -184t-199.5 -59t-199.5 59t-56.5 184zM240 236q0 -63 23 -89t75 -26q53 0 76.5 26t23.5 89v667q0 65 -23 90t-77 25q-52 0 -75 -25.5t-23 -89.5v-667z" />
<glyph unicode="1" horiz-adv-x="710" d="M82 45v43q0 43 45 43h170v877h-170q-45 0 -45 45v43q0 43 45 43h283q45 0 45 -43v-965h170q45 0 45 -43v-43q0 -45 -45 -45h-498q-45 0 -45 45z" />
<glyph unicode="2" d="M82 45v55q0 24 10 47l305 517q24 40 32.5 79t8.5 99v61q0 65 -23 90t-77 25q-52 0 -75 -25.5t-23 -89.5v-139q0 -43 -45 -43h-68q-45 0 -45 43v141q0 125 56.5 184.5t199.5 59.5t199.5 -59.5t56.5 -184.5v-47q0 -85 -14 -141.5t-50 -122.5l-270 -457h291q43 0 43 -43v-49 q0 -45 -43 -45h-424q-45 0 -45 45z" />
<glyph unicode="3" d="M82 39v96q0 43 45 43h68q45 0 45 -43v-94q0 -64 23 -89.5t75 -25.5q54 0 77 25t23 90v231q0 69 -26.5 102.5t-94.5 33.5h-24q-43 0 -43 45v43q0 43 43 43h24q69 0 95 33.5t26 103.5v227q0 65 -23 90t-77 25q-52 0 -75 -25.5t-23 -89.5v-92q0 -45 -45 -45h-68 q-45 0 -45 45v94q0 125 56.5 184.5t199.5 59.5t199.5 -59.5t56.5 -184.5v-178q0 -103 -31.5 -163.5t-111.5 -82.5v-14q80 -22 111.5 -82.5t31.5 -163.5v-182q0 -125 -56.5 -184.5t-199.5 -59.5t-199.5 59.5t-56.5 184.5z" />
<glyph unicode="4" horiz-adv-x="684" d="M27 164v51q0 28 8 49l205 840q9 35 43 35h69q27 0 36.5 -17.5t2.5 -38.5l-203 -825h185v264q0 43 43 43h55q43 0 43 -43v-264h125q45 0 45 -43v-51q0 -45 -45 -45h-125v-271q0 -43 -43 -43h-55q-43 0 -43 43v271h-303q-43 0 -43 45z" />
<glyph unicode="5" d="M82 39v49q0 45 45 45h68q45 0 45 -45v-47q0 -64 23 -89.5t75 -25.5q54 0 77 25t23 90v360q0 65 -23 90t-77 25q-51 0 -74 -23t-24 -83v-9q-3 -32 -43 -32h-70q-45 0 -45 43v684q0 43 45 43h403q43 0 43 -43v-58q0 -45 -43 -45h-303v-407q64 61 166 61q107 0 154 -57.5 t47 -175.5v-375q0 -125 -56.5 -184.5t-199.5 -59.5t-199.5 59.5t-56.5 184.5z" />
<glyph unicode="6" d="M82 233v867q0 125 56.5 184t199.5 59t199.5 -59t56.5 -184v-101q0 -43 -43 -43h-70q-43 0 -43 43v99q0 64 -23 89t-77 25q-53 0 -75.5 -25t-22.5 -89v-406q62 62 157 62q104 0 150.5 -58t46.5 -176v-287q0 -125 -56.5 -184t-199.5 -59t-199.5 59t-56.5 184zM240 236 q0 -63 23 -89t75 -26q53 0 76.5 26t23.5 89v272q0 65 -23 90t-77 25q-51 0 -74.5 -23t-23.5 -80v-284z" />
<glyph unicode="7" horiz-adv-x="589" d="M41 1038v58q0 43 45 43h440q43 0 43 -43v-58q0 -25 -8 -49l-285 -1149q-9 -35 -40 -35h-68q-26 0 -35 17t-2 39l281 1134h-326q-45 0 -45 43z" />
<glyph unicode="8" d="M82 233v183q0 102 32 163t111 83v14q-79 22 -111 83t-32 163v178q0 125 56.5 184t199.5 59t199.5 -59t56.5 -184v-178q0 -103 -31.5 -163.5t-111.5 -82.5v-14q80 -22 111.5 -82.5t31.5 -163.5v-183q0 -125 -56.5 -184t-199.5 -59t-199.5 59t-56.5 184zM240 236 q0 -63 23 -89t75 -26q53 0 76.5 26t23.5 89v231q0 63 -21.5 95t-78.5 32q-56 0 -77 -31.5t-21 -95.5v-231zM240 870q0 -66 20.5 -97.5t77.5 -31.5t78.5 31.5t21.5 97.5v228q0 64 -23 89t-77 25q-53 0 -75.5 -25t-22.5 -89v-228z" />
<glyph unicode="9" d="M82 41v82q0 45 45 45h68q45 0 45 -45v-80q0 -64 23 -89.5t75 -25.5q54 0 77 25t23 90v373q-62 -62 -159 -62q-104 0 -150.5 58t-46.5 176v319q0 125 56.5 184.5t199.5 59.5t199.5 -59.5t56.5 -184.5v-866q0 -125 -56.5 -184.5t-199.5 -59.5t-199.5 59.5t-56.5 184.5z M240 600q0 -64 23 -89.5t75 -25.5q51 0 75 23t25 80v317q0 65 -23 90t-77 25q-52 0 -75 -25.5t-23 -89.5v-305z" />
<glyph unicode=":" horiz-adv-x="393" d="M82 104q0 51 32 83t83 32t82.5 -32t31.5 -83t-31.5 -82.5t-82.5 -31.5t-83 31.5t-32 82.5zM82 1034q0 51 32 83t83 32t82.5 -32t31.5 -83t-31.5 -82.5t-82.5 -31.5t-83 31.5t-32 82.5z" />
<glyph unicode=";" horiz-adv-x="393" d="M82 1034q0 51 32 83t83 32t82.5 -32t31.5 -83t-31.5 -82.5t-82.5 -31.5t-83 31.5t-32 82.5zM92 -209l23 399q6 41 47 41h106q23 0 34 -14t5 -37l-100 -395q-8 -41 -45 -41h-29q-47 0 -41 47z" />
<glyph unicode="&#x3c;" horiz-adv-x="860" d="M82 705v77q0 35 31 47l606 252q21 8 40 -0.5t19 -33.5v-68q0 -37 -37 -49l-477 -180v-13l477 -180q37 -13 37 -49v-66q0 -26 -18.5 -35t-40.5 -1l-606 251q-31 12 -31 48z" />
<glyph unicode="=" horiz-adv-x="860" d="M82 530v56q0 43 45 43h608q43 0 43 -43v-56q0 -45 -43 -45h-608q-45 0 -45 45zM82 903v55q0 43 45 43h608q43 0 43 -43v-55q0 -45 -43 -45h-608q-45 0 -45 45z" />
<glyph unicode="&#x3e;" horiz-adv-x="860" d="M82 442v66q0 37 37 49l477 180v13l-477 180q-37 13 -37 49v68q0 25 19 33.5t40 0.5l609 -252q28 -11 28 -47v-77q0 -37 -28 -48l-609 -251q-21 -8 -40 1t-19 35z" />
<glyph unicode="?" horiz-adv-x="745" d="M61 1069v123q0 77 14.5 130t49 93t96 59t152.5 19t152 -19t96 -59t49 -93t14 -130v-21q0 -63 -17.5 -121t-43.5 -99t-56.5 -88t-56.5 -89t-43.5 -101.5t-17.5 -125.5v-111q0 -45 -43 -45h-66q-45 0 -45 45v90q0 82 16.5 153t41.5 119t54.5 95.5t54.5 84.5t41.5 84 t16.5 95v35q0 84 -31 124t-116 40t-116.5 -40.5t-31.5 -123.5v-123q0 -43 -43 -43h-76q-45 0 -45 43zM262 100q0 48 31 78.5t80 30.5q47 0 77.5 -31t30.5 -78q0 -49 -30 -79.5t-78 -30.5q-50 0 -80.5 30.5t-30.5 79.5z" />
<glyph unicode="@" horiz-adv-x="1226" d="M82 203v735q0 128 24.5 217.5t84 156.5t164.5 99.5t259 32.5t258.5 -32.5t164 -99.5t84 -156.5t24.5 -217.5v-741q0 -105 -46 -156t-157 -51q-110 0 -162 67q-58 -67 -184 -67q-129 0 -183.5 60t-54.5 183v162q0 125 56.5 184.5t199.5 59.5h99v264q0 64 -23 89.5 t-76 25.5q-54 0 -77 -25t-23 -90v-88q0 -43 -43 -43h-70q-43 0 -43 43v90q0 125 56.5 184.5t199.5 59.5q142 0 198 -59.5t58 -184.5v-708q0 -39 13 -57.5t47 -18.5t46.5 18.5t12.5 57.5v741q0 94 -17.5 160.5t-59 116.5t-115.5 74t-183 24q-110 0 -183.5 -24t-115 -74 t-58.5 -116t-17 -161v-735q0 -96 17 -162.5t58.5 -116.5t115 -74t183.5 -24h211q45 0 45 -43v-43q0 -45 -45 -45h-211q-155 0 -259.5 32t-164 99t-84 157.5t-24.5 219.5zM514 236q0 -63 23.5 -89t76.5 -26q52 0 75.5 26t23.5 89v274h-99q-53 0 -76.5 -26t-23.5 -89v-159z " />
<glyph unicode="A" horiz-adv-x="751" d="M23 51l213 1387q6 45 49 45h184q41 0 47 -45l213 -1387q1 -6 1 -11q0 -16 -8 -26q-10 -14 -32 -14h-86q-18 0 -30 10.5t-13 30.5l-43 281h-285l-40 -281q-6 -41 -46 -41h-86q-21 0 -31 14q-8 11 -8 27q0 5 1 10zM252 465h246l-70 477l-47 397h-10l-47 -397z" />
<glyph unicode="B" horiz-adv-x="770" d="M82 45v1395q0 43 45 43h223q99 0 166 -21t105.5 -64.5t54.5 -101.5t16 -141v-90q0 -129 -40 -204.5t-140 -104.5v-11q100 -31 140 -106.5t40 -202.5v-106q0 -83 -16 -142t-54.5 -102.5t-105.5 -64.5t-166 -21h-223q-45 0 -45 45zM254 143h96q98 0 134 46t36 141v164 q0 94 -36 140t-134 46h-96v-537zM254 823h96q98 0 134 45t36 140v147q0 94 -36 139t-134 45h-96v-516z" />
<glyph unicode="C" horiz-adv-x="794" d="M82 291v901q0 76 15 129.5t50 93.5t97 59t153 19q177 0 246.5 -73.5t69.5 -227.5v-240q0 -45 -45 -45h-82q-45 0 -45 45v240q0 80 -30.5 119t-113.5 39t-113 -39t-30 -119v-901q0 -80 30 -119t113 -39t113.5 39t30.5 119v241q0 43 45 43h82q45 0 45 -43v-241 q0 -154 -69.5 -227.5t-246.5 -73.5q-91 0 -153 19t-97 59t-50 93.5t-15 129.5z" />
<glyph unicode="D" horiz-adv-x="778" d="M82 45v1395q0 43 45 43h229q99 0 166 -21t105 -64.5t53.5 -101.5t15.5 -141v-825q0 -84 -15.5 -142t-53.5 -102t-105 -65t-166 -21h-229q-45 0 -45 45zM254 143h102q98 0 134 46t36 141v825q0 94 -36 139t-134 45h-102v-1196z" />
<glyph unicode="E" horiz-adv-x="655" d="M82 45v1395q0 43 45 43h463q45 0 45 -43v-56q0 -45 -45 -45h-336v-526h258q45 0 45 -43v-55q0 -45 -45 -45h-258v-527h336q45 0 45 -43v-55q0 -45 -45 -45h-463q-45 0 -45 45z" />
<glyph unicode="F" horiz-adv-x="645" d="M82 45v1395q0 43 45 43h463q45 0 45 -43v-56q0 -45 -45 -45h-336v-526h258q45 0 45 -43v-55q0 -45 -45 -45h-258v-625q0 -45 -45 -45h-82q-45 0 -45 45z" />
<glyph unicode="G" horiz-adv-x="794" d="M82 291v901q0 76 15 129.5t50 93.5t97 59t153 19q177 0 246.5 -73.5t69.5 -227.5v-158q0 -45 -45 -45h-82q-45 0 -45 45v158q0 80 -30.5 119t-113.5 39t-113 -39t-30 -119v-901q0 -80 30 -119t113 -39t113.5 39t30.5 119v319h-111q-43 0 -43 43v56q0 45 43 45h238 q45 0 45 -45v-418q0 -154 -69.5 -227.5t-246.5 -73.5q-91 0 -153 19t-97 59t-50 93.5t-15 129.5z" />
<glyph unicode="H" horiz-adv-x="794" d="M82 45v1395q0 43 45 43h82q45 0 45 -43v-627h287v627q0 43 45 43h82q45 0 45 -43v-1395q0 -45 -45 -45h-82q-45 0 -45 45v625h-287v-625q0 -45 -45 -45h-82q-45 0 -45 45z" />
<glyph unicode="I" horiz-adv-x="335" d="M82 45v1395q0 43 45 43h82q45 0 45 -43v-1395q0 -45 -45 -45h-82q-45 0 -45 45z" />
<glyph unicode="J" horiz-adv-x="753" d="M41 291v170q0 43 45 43h82q45 0 45 -43v-170q0 -80 30 -119t113 -39t113.5 39t30.5 119v1149q0 43 45 43h82q45 0 45 -43v-1149q0 -154 -69.5 -227.5t-246.5 -73.5q-91 0 -153 19t-97 59t-50 93.5t-15 129.5z" />
<glyph unicode="K" horiz-adv-x="749" d="M82 45v1395q0 43 45 43h82q45 0 45 -43v-611h10l297 625q15 29 45 29h94q24 1 34 -21q5 -10 4 -20q0 -9 -5 -17l-327 -684l327 -684q5 -8 5 -17t-4 -19q-10 -21 -34 -21h-94q-30 0 -45 29l-297 624h-10v-608q0 -45 -45 -45h-82q-45 0 -45 45z" />
<glyph unicode="L" horiz-adv-x="645" d="M82 45v1395q0 43 45 43h82q45 0 45 -43v-1297h336q45 0 45 -43v-55q0 -45 -45 -45h-463q-45 0 -45 45z" />
<glyph unicode="M" horiz-adv-x="970" d="M82 45v1395q0 43 45 43h149q42 0 48 -43l104 -590l51 -350h13l51 350l102 590q8 43 49 43h150q45 0 45 -43v-1395q0 -45 -45 -45h-72q-45 0 -45 45v842l14 289h-10l-135 -834q-7 -41 -47 -41h-127q-40 0 -47 41l-135 834h-11l15 -289v-842q0 -45 -45 -45h-72 q-45 0 -45 45z" />
<glyph unicode="N" horiz-adv-x="798" d="M82 45v1395q0 43 45 43h106q39 0 48 -39l204 -768l72 -301l10 2l-16 309v754q0 43 45 43h78q43 0 43 -43v-1395q0 -45 -43 -45h-109q-21 0 -31 9t-16 30l-205 768l-71 301l-11 -2l17 -309v-752q0 -45 -43 -45h-78q-45 0 -45 45z" />
<glyph unicode="O" horiz-adv-x="794" d="M82 291v901q0 76 15 129.5t50 93.5t97 59t153 19q177 0 246.5 -73.5t69.5 -227.5v-901q0 -154 -69.5 -227.5t-246.5 -73.5q-91 0 -153 19t-97 59t-50 93.5t-15 129.5zM254 291q0 -80 30 -119t113 -39t113.5 39t30.5 119v901q0 80 -30.5 119t-113.5 39t-113 -39t-30 -119 v-901z" />
<glyph unicode="P" horiz-adv-x="733" d="M82 45v1395q0 43 45 43h223q99 0 166 -21t105.5 -64.5t54.5 -101.5t16 -141v-227q0 -83 -16 -142t-54.5 -102.5t-105.5 -64.5t-166 -21h-96v-553q0 -45 -45 -45h-82q-45 0 -45 45zM254 741h96q98 0 134 46t36 141v227q0 94 -36 139t-134 45h-96v-598z" />
<glyph unicode="Q" horiz-adv-x="794" d="M82 291v901q0 76 15 129.5t50 93.5t97 59t153 19q177 0 246.5 -73.5t69.5 -227.5v-901q0 -143 -54 -211l127 -219q9 -15 9 -27q0 -21 -25 -35l-72 -41q-13 -7 -25 -7q-20 0 -34 24l-131 225q-52 -10 -111 -10q-91 0 -153 19t-97 59t-50 93.5t-15 129.5zM254 291 q0 -80 30 -119t113 -39t113.5 39t30.5 119v901q0 80 -30.5 119t-113.5 39t-113 -39t-30 -119v-901z" />
<glyph unicode="R" horiz-adv-x="778" d="M82 45v1395q0 43 45 43h229q99 0 166 -21t105 -64.5t53.5 -101.5t15.5 -141v-172q0 -132 -40.5 -206.5t-147.5 -100.5l235 -619q4 -10 4 -19q-1 -10 -5 -19q-8 -18 -33 -19h-93q-36 0 -45 31l-237 624h-80v-610q0 -45 -45 -45h-82q-45 0 -45 45zM254 799h102 q99 0 134.5 44.5t35.5 139.5v172q0 94 -36 139t-134 45h-102v-540z" />
<glyph unicode="S" horiz-adv-x="784" d="M78 291v194q0 45 43 45h84q43 0 43 -45v-194q0 -80 30 -119t113 -39t114.5 39.5t31.5 118.5q0 101 -21 157.5t-90 129.5l-213 223q-73 72 -104 154.5t-31 236.5q0 155 68 228t245 73t246.5 -73.5t69.5 -227.5v-195q0 -43 -43 -43h-84q-43 0 -43 43v195q0 79 -31.5 118.5 t-114.5 39.5t-113 -39t-30 -119q0 -103 20.5 -159t89.5 -128l213 -223q74 -74 105 -156t31 -235q0 -154 -69.5 -227.5t-246.5 -73.5t-245 73t-68 228z" />
<glyph unicode="T" horiz-adv-x="729" d="M0 1384v56q0 43 45 43h639q45 0 45 -43v-56q0 -45 -45 -45h-233v-1294q0 -45 -45 -45h-82q-45 0 -45 45v1294h-234q-45 0 -45 45z" />
<glyph unicode="U" horiz-adv-x="794" d="M82 291v1149q0 43 45 43h82q45 0 45 -43v-1149q0 -80 30 -119t113 -39t113.5 39t30.5 119v1149q0 43 45 43h82q45 0 45 -43v-1149q0 -154 -69.5 -227.5t-246.5 -73.5q-91 0 -153 19t-97 59t-50 93.5t-15 129.5z" />
<glyph unicode="V" horiz-adv-x="751" d="M23 1432q-1 5 -1 10q0 16 8 27q10 14 31 14h86q40 0 46 -41l133 -899l45 -400h10l45 400l135 899q3 41 43 41h86q22 1 32 -13q8 -10 8 -27q0 -5 -1 -11l-213 -1387q-6 -45 -47 -45h-184q-43 0 -49 45z" />
<glyph unicode="W" horiz-adv-x="1058" d="M23 1432v7q0 44 38 44h82q40 0 43 -41l88 -910l25 -372h10l23 372l80 910q3 41 45 41h145q39 0 45 -41l80 -910l21 -372h12l22 372l90 910q3 41 43 41h82q39 0 39 -44v-7l-147 -1387q-6 -45 -47 -45h-170q-44 0 -47 45l-70 860l-20 357h-11l-20 -357l-70 -860 q-3 -45 -47 -45h-170q-44 0 -47 45z" />
<glyph unicode="X" horiz-adv-x="749" d="M25 57l254 684l-254 684q-3 9 -3 18q0 11 4 21q8 18 33 19h88q34 0 46 -31l98 -268l78 -260h12l78 260l98 268q12 31 45 31h88q25 -1 34 -19q5 -10 5 -21q0 -9 -4 -18l-254 -684l254 -684q4 -9 4 -18q0 -10 -5 -20q-9 -18 -34 -19h-88q-33 0 -45 31l-98 268l-78 260h-12 l-78 -260l-98 -268q-12 -31 -46 -31h-88q-25 0 -33 18q-5 10 -4 21q0 9 3 18z" />
<glyph unicode="Y" horiz-adv-x="755" d="M25 1427q-3 10 -3 18q0 11 6 21q10 17 33 17h86q37 0 46 -31l104 -350l76 -303h10l76 303l102 350q9 31 45 31h88q23 0 33 -17q6 -11 6 -23q0 -8 -2 -16l-268 -849v-533q0 -45 -43 -45h-84q-43 0 -43 45v533z" />
<glyph unicode="Z" horiz-adv-x="630" d="M41 45v51q0 21 6 39l352 1204h-313q-45 0 -45 45v56q0 43 45 43h461q43 0 43 -43v-54q0 -18 -6 -36l-353 -1207h316q43 0 43 -43v-55q0 -45 -43 -45h-461q-45 0 -45 45z" />
<glyph unicode="[" horiz-adv-x="557" d="M164 -195v1872q0 43 45 43h283q45 0 45 -43v-55q0 -45 -45 -45h-156v-1671h156q45 0 45 -45v-56q0 -43 -45 -43h-283q-45 0 -45 43z" />
<glyph unicode="\" horiz-adv-x="573" d="M-39 1665q-7 22 3 38.5t36 16.5h61q32 0 41 -34l508 -1868q7 -22 -2 -39t-35 -17h-61q-35 0 -41 35z" />
<glyph unicode="]" horiz-adv-x="557" d="M20 -139q0 45 46 45h155v1671h-155q-46 0 -46 45v55q0 43 46 43h282q45 0 45 -43v-1872q0 -43 -45 -43h-282q-46 0 -46 43v56z" />
<glyph unicode="^" horiz-adv-x="847" d="M86 844l252 608q12 29 47 29h78q35 0 47 -29l252 -608q8 -21 -1 -40.5t-34 -19.5h-68q-37 0 -49 37l-180 477h-12l-180 -477q-13 -37 -50 -37h-65q-26 0 -35.5 19.5t-1.5 40.5z" />
<glyph unicode="_" horiz-adv-x="927" d="M0 -96q0 45 45 45h840q43 0 43 -45v-49q0 -45 -43 -45h-840q-45 0 -45 45v49z" />
<glyph unicode="`" horiz-adv-x="587" d="M137 1466q-29 29 4 56l54 49q30 24 55 -4l201 -260q28 -28 -2 -54l-23 -22q-28 -23 -55 4z" />
<glyph unicode="a" d="M82 178v217q0 125 56.5 184.5t199.5 59.5h100v264q0 65 -23 90t-77 25q-52 0 -75 -25.5t-23 -89.5v-88q0 -43 -45 -43h-68q-45 0 -45 43v90q0 125 56.5 184.5t199.5 59.5t198.5 -59t57.5 -185v-862q0 -43 -43 -43h-70q-43 0 -43 43v27q-39 -38 -89.5 -59t-98.5 -21 q-73 0 -120.5 47.5t-47.5 140.5zM240 242q0 -66 19.5 -90.5t70.5 -24.5q108 0 108 121v262h-100q-52 0 -75 -26t-23 -89v-153z" />
<glyph unicode="b" d="M82 43v1552q0 43 45 43h68q45 0 45 -43v-526q38 38 88 59t98 21q73 0 120.5 -47.5t47.5 -140.5v-783q0 -93 -47.5 -140.5t-120.5 -47.5q-48 0 -98 21t-88 59v-27q0 -43 -45 -43h-68q-45 0 -45 43zM240 248q0 -63 26 -92t80 -29q51 0 71.5 25t20.5 90v657q0 64 -20.5 89.5 t-71.5 25.5q-106 0 -106 -123v-643z" />
<glyph unicode="c" d="M82 233v672q0 125 56.5 184.5t199.5 59.5t199.5 -59.5t56.5 -184.5v-162q0 -43 -43 -43h-70q-43 0 -43 43v160q0 65 -23 90t-77 25q-52 0 -75 -25.5t-23 -89.5v-667q0 -63 23 -89t75 -26q53 0 76.5 26t23.5 89v159q0 45 43 45h70q43 0 43 -45v-162q0 -125 -56.5 -184 t-199.5 -59t-199.5 59t-56.5 184z" />
<glyph unicode="d" d="M82 178v783q0 93 47.5 140.5t120.5 47.5q48 0 98.5 -21t89.5 -59v526q0 43 43 43h70q43 0 43 -43v-1552q0 -43 -43 -43h-70q-43 0 -43 43v27q-39 -38 -89.5 -59t-98.5 -21q-73 0 -120.5 47.5t-47.5 140.5zM240 242q0 -66 19.5 -90.5t70.5 -24.5q108 0 108 121v643 q0 123 -108 123q-51 0 -70.5 -25t-19.5 -90v-657z" />
<glyph unicode="e" d="M82 233v672q0 125 56.5 184.5t199.5 59.5t199.5 -59.5t56.5 -184.5v-352q0 -47 -47 -47h-307v-270q0 -63 23 -89t75 -26q53 0 76.5 26t23.5 89v73q0 43 43 43h70q43 0 43 -43v-76q0 -125 -56.5 -184t-199.5 -59t-199.5 59t-56.5 184zM240 635h198v268q0 65 -23 90t-77 25 q-52 0 -75 -25.5t-23 -89.5v-268z" />
<glyph unicode="f" horiz-adv-x="505" d="M10 1053v43q0 43 45 43h88v235q0 135 61.5 199.5t217.5 64.5h49q45 0 45 -43v-43q0 -45 -45 -45h-49q-70 0 -95.5 -33t-25.5 -102v-233h129q45 0 45 -43v-43q0 -45 -45 -45h-129v-963q0 -45 -45 -45h-68q-45 0 -45 45v963h-88q-45 0 -45 45z" />
<glyph unicode="g" d="M82 178v783q0 93 47.5 140.5t120.5 47.5q48 0 98.5 -21t89.5 -59v27q0 43 43 43h70q43 0 43 -43v-1241q0 -135 -61.5 -200t-215.5 -65h-100q-45 0 -45 43v43q0 45 45 45h100q68 0 94.5 33.5t26.5 102.5v213q-39 -38 -89.5 -59t-98.5 -21q-73 0 -120.5 47.5t-47.5 140.5z M240 242q0 -66 19.5 -90.5t70.5 -24.5q108 0 108 121v643q0 123 -108 123q-51 0 -70.5 -25t-19.5 -90v-657z" />
<glyph unicode="h" d="M82 43v1552q0 43 45 43h68q45 0 45 -43v-526q38 38 88 59t98 21q73 0 120.5 -47.5t47.5 -140.5v-918q0 -43 -43 -43h-70q-43 0 -43 43v856q0 64 -20.5 89.5t-71.5 25.5q-106 0 -106 -123v-848q0 -43 -45 -43h-68q-45 0 -45 43z" />
<glyph unicode="i" horiz-adv-x="321" d="M61 1391q0 44 28 72t71 28q44 0 72 -28t28 -72q0 -43 -28 -71t-72 -28q-43 0 -71 28t-28 71zM82 45v1051q0 43 45 43h68q45 0 45 -43v-1051q0 -45 -45 -45h-68q-45 0 -45 45z" />
<glyph unicode="j" horiz-adv-x="321" d="M-113 -324q0 45 43 45h31q70 0 95.5 33t25.5 103v1239q0 43 45 43h68q45 0 45 -43v-1241q0 -135 -61.5 -200t-217.5 -65h-31q-43 0 -43 43v43zM61 1391q0 44 28 72t71 28q44 0 72 -28t28 -72q0 -43 -28 -71t-72 -28q-43 0 -71 28t-28 71z" />
<glyph unicode="k" horiz-adv-x="651" d="M82 45v1550q0 43 45 43h68q45 0 45 -43v-950h10l231 467q13 27 43 27h80q24 -1 33 -21q4 -10 4.5 -20t-4.5 -19l-254 -508l254 -512q5 -10 5 -20q0 -9 -4 -19q-8 -20 -34 -20h-80q-30 0 -43 29l-231 467h-10v-451q0 -45 -45 -45h-68q-45 0 -45 45z" />
<glyph unicode="l" horiz-adv-x="321" d="M82 45v1550q0 43 45 43h68q45 0 45 -43v-1550q0 -45 -45 -45h-68q-45 0 -45 45z" />
<glyph unicode="m" horiz-adv-x="1032" d="M82 43v1053q0 43 45 43h68q45 0 45 -43v-27q38 38 88 59t98 21q103 0 145 -86q89 86 211 86q73 0 120.5 -47.5t47.5 -140.5v-918q0 -43 -45 -43h-67q-45 0 -45 43v856q0 65 -20.5 90t-72.5 25q-106 0 -106 -123v-848q0 -43 -43 -43h-70q-43 0 -43 43v856q0 64 -20.5 89.5 t-71.5 25.5q-106 0 -106 -123v-848q0 -43 -45 -43h-68q-45 0 -45 43z" />
<glyph unicode="n" d="M82 43v1053q0 43 45 43h68q45 0 45 -43v-27q38 38 88 59t98 21q73 0 120.5 -47.5t47.5 -140.5v-918q0 -43 -43 -43h-70q-43 0 -43 43v856q0 64 -20.5 89.5t-71.5 25.5q-106 0 -106 -123v-848q0 -43 -45 -43h-68q-45 0 -45 43z" />
<glyph unicode="o" d="M82 233v672q0 125 56.5 184.5t199.5 59.5t199.5 -59.5t56.5 -184.5v-672q0 -125 -56.5 -184t-199.5 -59t-199.5 59t-56.5 184zM240 236q0 -63 23 -89t75 -26q53 0 76.5 26t23.5 89v667q0 65 -23 90t-77 25q-52 0 -75 -25.5t-23 -89.5v-667z" />
<glyph unicode="p" d="M82 -367v1463q0 43 45 43h68q45 0 45 -43v-27q38 38 88 59t98 21q73 0 120.5 -47.5t47.5 -140.5v-783q0 -93 -47.5 -140.5t-120.5 -47.5q-48 0 -98 21t-88 59v-437q0 -43 -45 -43h-68q-45 0 -45 43zM240 248q0 -63 26 -92t80 -29q51 0 71.5 25t20.5 90v657 q0 64 -20.5 89.5t-71.5 25.5q-106 0 -106 -123v-643z" />
<glyph unicode="q" d="M82 178v783q0 93 47.5 140.5t120.5 47.5q48 0 98.5 -21t89.5 -59v27q0 43 43 43h70q43 0 43 -43v-1463q0 -43 -43 -43h-70q-43 0 -43 43v437q-39 -38 -89.5 -59t-98.5 -21q-73 0 -120.5 47.5t-47.5 140.5zM240 242q0 -66 19.5 -90.5t70.5 -24.5q108 0 108 121v643 q0 123 -108 123q-51 0 -70.5 -25t-19.5 -90v-657z" />
<glyph unicode="r" horiz-adv-x="634" d="M82 43v1053q0 43 45 43h68q45 0 45 -43v-27q38 38 88 59t98 21q73 0 120.5 -47.5t47.5 -140.5v-293q0 -43 -43 -43h-70q-43 0 -43 43v231q0 64 -20.5 89.5t-71.5 25.5q-106 0 -106 -123v-848q0 -43 -45 -43h-68q-45 0 -45 43z" />
<glyph unicode="s" horiz-adv-x="665" d="M78 233v132q0 45 43 45h69q43 0 43 -45v-129q0 -63 23.5 -89t77.5 -26q52 0 75 26t23 89q0 61 -7.5 93t-20.5 50.5t-51 55.5l-11 11l-156 152q-60 58 -84 120.5t-24 186.5q0 125 56.5 184.5t199.5 59.5q142 0 199 -59.5t57 -184.5v-131q0 -43 -45 -43h-68q-45 0 -45 43 v129q0 64 -23 89.5t-75 25.5q-54 0 -77.5 -25.5t-23.5 -89.5q0 -59 8 -92t19.5 -49t49.5 -55q3 -3 4.5 -5t4.5 -5l5 -5l155 -151q41 -40 63 -74.5t35 -91.5t13 -142q0 -124 -57 -183.5t-199 -59.5q-143 0 -199.5 59t-56.5 184z" />
<glyph unicode="t" horiz-adv-x="526" d="M10 1053v43q0 43 45 43h88v301q0 43 45 43h68q45 0 45 -43v-301h129q45 0 45 -43v-43q0 -45 -45 -45h-129v-740q0 -71 25.5 -104t95.5 -33h49q45 0 45 -43v-43q0 -45 -45 -45h-49q-156 0 -217.5 65t-61.5 201v742h-88q-45 0 -45 45z" />
<glyph unicode="u" d="M82 178v918q0 43 45 43h68q45 0 45 -43v-854q0 -66 19.5 -90.5t70.5 -24.5q108 0 108 121v848q0 43 43 43h70q43 0 43 -43v-1053q0 -43 -43 -43h-70q-43 0 -43 43v27q-39 -38 -89.5 -59t-98.5 -21q-73 0 -120.5 47.5t-47.5 140.5z" />
<glyph unicode="v" horiz-adv-x="587" d="M12 1085q-1 7 -1 13q1 17 9 27q12 14 33 14h66q24 0 35 -9.5t14 -33.5l82 -576l39 -358h10l39 358l80 576q3 23 14.5 33t36.5 10h66q21 1 33 -13q9 -10 8 -28q0 -6 -1 -13l-161 -1042q-6 -43 -49 -43h-142q-24 0 -35 10t-16 33z" />
<glyph unicode="w" horiz-adv-x="960" d="M12 1085q-1 7 -1 13q1 17 9 27q12 14 33 14h66q24 0 35 -9.5t14 -33.5l70 -586l30 -348h11l32 348l66 586q3 23 14.5 33t36.5 10h104q25 0 37 -10t15 -33l65 -586l33 -348h12l29 348l70 586q3 24 14 33.5t35 9.5h65q21 0 33 -14q9 -10 9 -27q0 -6 -1 -13l-139 -1042 q-6 -43 -51 -43h-125q-43 0 -49 43l-70 555l-29 348h-10l-29 -348l-69 -555q-6 -43 -49 -43h-125q-24 0 -35 10t-16 33z" />
<glyph unicode="x" horiz-adv-x="612" d="M25 61l198 510l-198 506q-4 10 -4 20q0 11 5 22q9 20 35 20h70q38 0 49 -37l64 -193l57 -184h10l58 184l65 193q9 37 47 37h72q25 0 34 -20q5 -11 5 -22q0 -10 -4 -20l-197 -506l197 -510q4 -10 4 -20q0 -11 -5 -21q-9 -20 -34 -20h-72q-38 0 -47 37l-65 194l-58 183h-10 l-57 -183l-64 -194q-12 -37 -49 -37h-70q-26 0 -35 20q-5 10 -5 21q0 10 4 20z" />
<glyph unicode="y" horiz-adv-x="587" d="M12 1085q-1 7 -1 13q0 17 9 27q11 14 33 14h66q24 0 35 -9.5t14 -33.5l82 -576l39 -358h10l39 358l80 576q3 23 14.5 33t36.5 10h66q41 0 41 -39q0 -7 -1 -15l-221 -1452q-3 -23 -14 -33t-35 -10h-65q-23 0 -34 13.5t-7 40.5l59 356h-35q-42 0 -51 43z" />
<glyph unicode="z" horiz-adv-x="524" d="M20 1053v43q0 43 46 43h391q45 0 45 -43v-43q0 -24 -6 -39l-299 -883h264q43 0 43 -43v-43q0 -45 -43 -45h-393q-43 0 -43 45v43q0 21 6 39l297 881h-262q-46 0 -46 45z" />
<glyph unicode="{" horiz-adv-x="575" d="M0 715v55q0 43 45 43q101 0 139.5 48.5t38.5 148.5v446q0 135 63 199.5t224 64.5q45 0 45 -43v-53q0 -43 -45 -43q-66 0 -90.5 -33.5t-24.5 -103.5v-389q0 -127 -40 -202.5t-140 -104.5v-13q99 -29 139.5 -105t40.5 -202v-389q0 -71 24.5 -104t90.5 -33q45 0 45 -43v-54 q0 -43 -45 -43q-161 0 -224 65t-63 202v446q0 97 -38.5 146t-139.5 49q-45 0 -45 45z" />
<glyph unicode="|" horiz-adv-x="305" d="M82 -367v1962q0 43 45 43h51q45 0 45 -43v-1962q0 -43 -45 -43h-51q-45 0 -45 43z" />
<glyph unicode="}" horiz-adv-x="575" d="M20 -141q0 43 46 43q66 0 90 33t24 104v389q0 128 40.5 203.5t139.5 103.5v13q-100 31 -140 106t-40 201v389q0 71 -24 104t-90 33q-46 0 -46 43v53q0 43 46 43q161 0 223.5 -64.5t62.5 -199.5v-446q0 -99 38.5 -148t139.5 -49q45 0 45 -43v-55q0 -45 -45 -45 q-101 0 -139.5 -48.5t-38.5 -146.5v-446q0 -137 -62.5 -202t-223.5 -65q-46 0 -46 43v54z" />
<glyph unicode="~" horiz-adv-x="923" d="M82 477v47q0 84 39.5 141.5t96 75.5t120.5 5.5t113 -56.5l135 -121q38 -34 79.5 -16.5t41.5 68.5v49q0 41 43 41h51q41 0 41 -41v-49q0 -84 -39.5 -141.5t-96 -75.5t-120.5 -5.5t-113 56.5l-135 120q-38 34 -78.5 17t-40.5 -68v-47q0 -43 -43 -43h-53q-41 0 -41 43z" />
<glyph unicode="&#xa1;" horiz-adv-x="473" d="M127 1040q0 48 31 78.5t80 30.5q47 0 77.5 -31t30.5 -78q0 -49 -30 -79.5t-78 -30.5q-50 0 -80.5 30.5t-30.5 79.5zM139 -301l29 1006q3 43 45 43h49q43 0 43 -43l29 -1006q0 -43 -45 -43h-105q-45 0 -45 43z" />
<glyph unicode="&#xa2;" d="M82 578v671q0 107 40 165.5t140 72.5v170q0 43 45 43h64q45 0 45 -43v-170q98 -14 138 -72.5t40 -165.5v-162q0 -43 -43 -43h-70q-43 0 -43 43v160q0 65 -23 90t-77 25q-52 0 -75 -25.5t-23 -89.5v-667q0 -63 23 -89t75 -26q53 0 76.5 26t23.5 89v159q0 45 43 45h70 q43 0 43 -45v-161q0 -107 -40 -165.5t-138 -72.5v-168q0 -45 -45 -45h-64q-45 0 -45 45v168q-100 14 -140 72.5t-40 165.5z" />
<glyph unicode="&#xa3;" horiz-adv-x="774" d="M82 1192q0 76 15 129.5t50 93.5t97 59t153 19q177 0 246.5 -73.5t69.5 -227.5v-123q0 -43 -45 -43h-82q-45 0 -45 43v123q0 80 -30.5 119t-113.5 39t-113 -39t-30 -119q0 -65 14 -121.5t36 -100t45.5 -81.5t46 -82.5t32.5 -87.5h168q43 0 43 -43v-55q0 -46 -43 -46h-158 q-12 -98 -73 -233l-95 -199h385q45 0 45 -43v-55q0 -45 -45 -45h-526q-43 0 -43 45v51q0 27 6 39l117 248q49 110 59 192h-139q-43 0 -43 46v55q0 43 43 43h129q-13 44 -45 99t-59.5 98t-49.5 116.5t-22 159.5z" />
<glyph unicode="&#xa4;" horiz-adv-x="856" d="M57 424q-31 32 0 63l105 105q-41 71 -41 162t41 159l-105 109q-32 29 0 61l41 41q32 32 64 0l104 -106q75 43 162 43q88 0 160 -43l108 106q14 15 30.5 15t31.5 -15l41 -41q32 -32 0 -61l-107 -109q43 -72 43 -159t-43 -162l107 -105q31 -31 0 -63l-41 -41 q-15 -15 -31.5 -15t-30.5 15l-108 104q-68 -41 -160 -41q-91 0 -162 41l-104 -104q-32 -32 -64 0zM264 754q0 -70 47 -117t117 -47q71 0 118.5 47t47.5 117t-48 118t-118 48t-117 -47.5t-47 -118.5z" />
<glyph unicode="&#xa5;" horiz-adv-x="755" d="M25 1427q-8 22 2.5 39t33.5 17h86q37 0 46 -31l104 -350l76 -303h10l76 303l102 350q9 31 45 31h88q23 0 33 -17t4 -39l-248 -782h160q43 0 43 -43v-55q0 -45 -43 -45h-180v-457q0 -45 -43 -45h-84q-43 0 -43 45v457h-180q-43 0 -43 45v55q0 43 43 43h157z" />
<glyph unicode="&#xa6;" horiz-adv-x="305" d="M82 -367v744q0 43 45 43h51q45 0 45 -43v-744q0 -43 -45 -43h-51q-45 0 -45 43zM82 854v741q0 43 45 43h51q45 0 45 -43v-741q0 -45 -45 -45h-51q-45 0 -45 45z" />
<glyph unicode="&#xa7;" horiz-adv-x="794" d="M82 61q0 43 45 43h82q45 0 45 -43v-180q0 -80 30 -118.5t113 -38.5q81 0 112.5 34t31.5 92q0 68 -21.5 116.5t-87.5 119.5l-215 223q-70 72 -102.5 144.5t-32.5 195.5q0 161 127 240q-66 71 -96.5 142.5t-30.5 191.5q0 133 70 201.5t245 68.5q177 0 246.5 -73.5 t69.5 -227.5v-178q0 -45 -45 -45h-82q-45 0 -45 45v178q0 80 -30.5 119t-113.5 39q-81 0 -112 -34t-31 -93q0 -68 21 -117t87 -119l213 -223q72 -72 105 -144.5t33 -195.5q0 -163 -129 -240q67 -68 98 -140.5t31 -193.5q0 -132 -70.5 -201t-245.5 -69q-91 0 -153 19t-97 59 t-50 93.5t-15 129.5v180zM254 649q0 -66 20.5 -115t87.5 -120l109 -119q70 47 70 129q0 67 -21 115.5t-88 119.5l-108 117q-70 -45 -70 -127z" />
<glyph unicode="&#xa8;" horiz-adv-x="722" d="M123 1389q0 41 25.5 66.5t66.5 25.5t66.5 -25.5t25.5 -66.5t-25.5 -67t-66.5 -26t-66.5 26t-25.5 67zM418 1389q0 41 25 66.5t65 25.5q41 0 66.5 -25.5t25.5 -66.5t-25.5 -67t-66.5 -26q-40 0 -65 26t-25 67z" />
<glyph unicode="&#xa9;" horiz-adv-x="1544" d="M20 741q0 215 96.5 387t268.5 268.5t387 96.5t387 -96.5t268.5 -268.5t96.5 -387q0 -161 -56.5 -301t-155.5 -238.5t-239 -155t-301 -56.5t-301 56.5t-239 155t-155.5 238.5t-56.5 301zM162 741q0 -134 45.5 -250t125.5 -198t193.5 -129t245.5 -47t245.5 47t193.5 129 t125.5 198t45.5 250q0 179 -77.5 321.5t-217 223t-315.5 80.5t-315.5 -80.5t-217 -223t-77.5 -321.5zM539 487v508q0 116 51 172t182 56q132 0 184 -56.5t52 -171.5v-106q0 -39 -39 -39h-64q-39 0 -39 39v104q0 62 -21.5 86.5t-72.5 24.5t-72.5 -24.5t-21.5 -86.5v-506 q0 -61 21.5 -84.5t72.5 -23.5t72.5 23.5t21.5 84.5v107q0 39 39 39h64q39 0 39 -39v-109q0 -115 -52 -170t-184 -55t-182.5 55t-50.5 172z" />
<glyph unicode="&#xaa;" horiz-adv-x="405" d="M41 1008v104q0 133 162 133h39v107q0 45 -39 45t-39 -43v-23q0 -37 -37 -37h-47q-39 0 -39 39v23q0 133 162 133t162 -133v-416q0 -37 -37 -37h-49q-17 0 -27 10t-10 25v6q-47 -47 -107 -47q-41 0 -67.5 28.5t-26.5 82.5zM164 1044q0 -24 9 -34.5t30 -10.5q39 0 39 45 v109h-39q-39 0 -39 -41v-68z" />
<glyph unicode="&#xab;" horiz-adv-x="817" d="M82 571l164 406q11 31 45 31h80q26 0 35.5 -20.5t1.5 -41.5l-152 -375l152 -376q8 -21 -1.5 -40.5t-35.5 -19.5h-80q-35 0 -45 29zM408 571l161 406q13 31 47 31h80q26 0 35 -20t2 -42l-153 -375l153 -376q7 -21 -2 -40.5t-35 -19.5h-80q-34 0 -47 29z" />
<glyph unicode="&#xac;" horiz-adv-x="860" d="M82 717v55q0 43 45 43h608q43 0 43 -43v-332q0 -45 -43 -45h-55q-45 0 -45 45v232h-508q-45 0 -45 45z" />
<glyph unicode="&#xad;" horiz-adv-x="544" d="M41 545v55q0 43 45 43h375q43 0 43 -43v-55q0 -45 -43 -45h-375q-45 0 -45 45z" />
<glyph unicode="&#xae;" horiz-adv-x="1544" d="M20 741q0 215 96.5 387t268.5 268.5t387 96.5t387 -96.5t268.5 -268.5t96.5 -387q0 -161 -56.5 -301t-155.5 -238.5t-239 -155t-301 -56.5t-301 56.5t-239 155t-155.5 238.5t-56.5 301zM162 741q0 -134 45.5 -250t125.5 -198t193.5 -129t245.5 -47t245.5 47t193.5 129 t125.5 198t45.5 250q0 179 -77.5 321.5t-217 223t-315.5 80.5t-315.5 -80.5t-217 -223t-77.5 -321.5zM549 315v867q0 39 39 39h174q145 0 200.5 -60t55.5 -188v-41q0 -97 -30 -154.5t-103 -79.5l162 -368q7 -19 -1 -36.5t-30 -17.5h-76q-31 0 -43 35l-154 373h-55v-369 q0 -39 -39 -39h-61q-39 0 -39 39zM688 801h74q67 0 92 32.5t25 100.5v37q0 67 -25 99t-92 32h-74v-301z" />
<glyph unicode="&#xaf;" horiz-adv-x="677" d="M123 1341v54q0 39 39 39h364q39 0 39 -39v-54q0 -38 -39 -38h-364q-39 0 -39 38z" />
<glyph unicode="&#xb0;" horiz-adv-x="567" d="M41 1251q0 104 69 173t173 69t173.5 -69t69.5 -173t-69.5 -172.5t-173.5 -68.5t-173 68.5t-69 172.5zM160 1251q0 -56 34.5 -92.5t88.5 -36.5q55 0 89 36.5t34 92.5t-34 91.5t-89 35.5q-54 0 -88.5 -35.5t-34.5 -91.5z" />
<glyph unicode="&#xb1;" horiz-adv-x="860" d="M82 45v55q0 43 45 43h608q43 0 43 -43v-55q0 -45 -43 -45h-608q-45 0 -45 45zM82 717v55q0 43 45 43h231v234q0 43 45 43h56q43 0 43 -43v-234h233q43 0 43 -43v-55q0 -45 -43 -45h-233v-232q0 -45 -43 -45h-56q-45 0 -45 45v232h-231q-45 0 -45 45z" />
<glyph unicode="&#xb2;" horiz-adv-x="454" d="M41 780v47q0 19 10 37l209 326q25 39 25 80v57q0 62 -58 62q-57 0 -57 -62v-84q0 -39 -37 -39h-53q-39 0 -39 39v84q0 84 45 123t141 39q97 0 142 -39.5t45 -122.5v-45q0 -85 -41 -143l-185 -281h189q37 0 37 -37v-41q0 -39 -37 -39h-297q-39 0 -39 39z" />
<glyph unicode="&#xb3;" horiz-adv-x="454" d="M41 897v66q0 36 39 36h53q37 0 37 -36v-66q0 -61 57 -61q58 0 58 61v109q0 61 -60 61h-26q-37 0 -37 37v20q0 37 37 37h26q60 0 60 62v104q0 62 -58 62q-57 0 -57 -62v-63q0 -39 -37 -39h-53q-39 0 -39 39v63q0 84 45 123t141 39q97 0 142 -39.5t45 -122.5v-59 q0 -115 -95 -150v-8q95 -35 95 -149v-64q0 -83 -45 -122.5t-142 -39.5q-96 0 -141 40t-45 122z" />
<glyph unicode="&#xb4;" horiz-adv-x="587" d="M137 1307l201 260q25 28 55 4l53 -49q31 -28 3 -56l-232 -231q-27 -27 -55 -4l-23 22q-30 26 -2 54z" />
<glyph unicode="&#xb6;" horiz-adv-x="905" d="M20 1184q0 86 22.5 146t66 92.5t98 46.5t127.5 14h528q43 0 43 -43v-54q0 -43 -43 -43h-180v-1710q0 -43 -43 -43h-66q-45 0 -45 43v1252h-194q-73 0 -127.5 14t-98 46.5t-66 92.5t-22.5 146zM174 1184q0 -86 42 -123t124 -37h188v319h-188q-82 0 -124 -36.5t-42 -122.5z " />
<glyph unicode="&#xb7;" horiz-adv-x="393" d="M82 741q0 51 32 83t83 32t82.5 -32t31.5 -83t-31.5 -82.5t-82.5 -31.5t-83 31.5t-32 82.5z" />
<glyph unicode="&#xb8;" horiz-adv-x="542" d="M123 -342q0 39 39 39h74q63 0 63 49q0 27 -15 38t-48 11h-54q-39 0 -39 39v37q0 11 7 29l40 100h115l-39 -98q154 -10 154 -156q0 -85 -43.5 -120.5t-130.5 -35.5h-84q-39 0 -39 39v29z" />
<glyph unicode="&#xb9;" horiz-adv-x="307" d="M10 1315v24q0 37 39 37h47q20 0 30.5 12t10.5 31v27q0 37 39 37h53q37 0 37 -37v-666q0 -39 -37 -39h-53q-39 0 -39 39v498h-88q-39 0 -39 37z" />
<glyph unicode="&#xba;" horiz-adv-x="405" d="M41 1032v324q0 133 162 133t162 -133v-324q0 -135 -162 -135t-162 135zM164 1036q0 -45 39 -45t39 45v316q0 45 -39 45t-39 -45v-316z" />
<glyph unicode="&#xbb;" horiz-adv-x="817" d="M86 195l152 376l-152 375q-8 21 1.5 41.5t35.5 20.5h80q34 0 45 -31l164 -406l-164 -407q-10 -29 -45 -29h-80q-26 0 -35.5 19.5t-1.5 40.5zM410 195l153 376l-153 375q-7 22 2 42t34 20h80q34 0 47 -31l162 -406l-162 -407q-13 -29 -47 -29h-80q-26 0 -34.5 19t-1.5 41z " />
<glyph unicode="&#xbc;" horiz-adv-x="917" d="M10 1315v24q0 37 39 37h47q20 0 30.5 12t10.5 31v27q0 37 39 37h53q37 0 37 -37v-666q0 -39 -37 -39h-53q-39 0 -39 39v498h-88q-39 0 -39 37zM106 17.5q-8 16.5 0 33.5l553 1407q13 25 39 25h68q21 -1 29 -16.5t0 -34.5l-553 -1407q-12 -25 -39 -25h-68q-21 1 -29 17.5z M492 176v47q0 20 8 39l133 455q9 24 37 24h57q24 0 31.5 -17t3.5 -36l-137 -432h80v131q0 37 36 37h54q36 0 36 -37v-131h48q36 0 36 -39v-41q0 -37 -36 -37h-48v-100q0 -39 -36 -39h-54q-36 0 -36 39v100h-175q-38 0 -38 37z" />
<glyph unicode="&#xbd;" horiz-adv-x="940" d="M10 1315v24q0 37 39 37h47q20 0 30.5 12t10.5 31v27q0 37 39 37h53q37 0 37 -37v-666q0 -39 -37 -39h-53q-39 0 -39 39v498h-88q-39 0 -39 37zM106 17.5q-8 16.5 0 33.5l553 1407q13 25 39 25h68q21 -1 29 -16.5t0 -34.5l-553 -1407q-12 -25 -39 -25h-68q-21 1 -29 17.5z M573 39v47q0 18 11 37l209 326q24 37 24 79v58q0 31 -13 46t-44 15q-58 0 -58 -61v-84q0 -39 -36 -39h-54q-39 0 -39 39v84q0 83 45 122.5t142 39.5q96 0 141 -39t45 -123v-45q0 -86 -41 -144l-184 -280h188q37 0 37 -37v-41q0 -39 -37 -39h-297q-39 0 -39 39z" />
<glyph unicode="&#xbe;" horiz-adv-x="1001" d="M41 897v66q0 36 39 36h53q37 0 37 -36v-66q0 -61 57 -61q58 0 58 61v109q0 61 -60 61h-26q-37 0 -37 37v20q0 37 37 37h26q60 0 60 62v104q0 62 -58 62q-57 0 -57 -62v-63q0 -39 -37 -39h-53q-39 0 -39 39v63q0 84 45 123t141 39q97 0 142 -39.5t45 -122.5v-59 q0 -115 -95 -150v-8q95 -35 95 -149v-64q0 -83 -45 -122.5t-142 -39.5q-96 0 -141 40t-45 122zM190 17.5q-8 16.5 0 33.5l553 1407q13 25 39 25h68q21 -1 29 -16.5t0 -34.5l-553 -1407q-12 -25 -39 -25h-68q-21 1 -29 17.5zM575 176v47q0 18 9 39l133 455q9 24 37 24h57 q24 0 31.5 -17t3.5 -36l-137 -432h79v131q0 37 37 37h54q36 0 36 -37v-131h48q36 0 36 -39v-41q0 -37 -36 -37h-48v-100q0 -39 -36 -39h-54q-37 0 -37 39v100h-174q-39 0 -39 37z" />
<glyph unicode="&#xbf;" horiz-adv-x="745" d="M61 -33q0 75 24 141t58.5 116.5t69 102t58.5 119.5t24 146v113q0 43 45 43h66q43 0 43 -43v-93q0 -96 -23 -177t-56 -135.5t-66 -103.5t-56 -103t-23 -111v-35q0 -83 31.5 -123.5t116.5 -40.5t116 40t31 124v123q0 45 43 45h76q45 0 45 -45v-123q0 -77 -14 -130t-49 -93 t-96 -59t-152 -19t-152.5 19t-96 59t-49 93t-14.5 130v20zM264 1040q0 47 31 78t78 31q49 0 79.5 -30.5t30.5 -78.5q0 -50 -30.5 -80t-79.5 -30q-48 0 -78.5 30.5t-30.5 79.5z" />
<glyph unicode="&#xc0;" horiz-adv-x="751" d="M23 51l213 1387q6 45 49 45h184q41 0 47 -45l213 -1387q3 -24 -7 -37.5t-32 -13.5h-86q-18 0 -30 10.5t-13 30.5l-43 281h-285l-40 -281q-6 -41 -46 -41h-86q-21 0 -31 14.5t-7 36.5zM129 1761l33 64q18 34 53 16l295 -184q33 -17 16 -51l-16 -31q-17 -29 -51 -14 l-314 147q-36 14 -16 53zM252 465h246l-70 477l-47 397h-10l-47 -397z" />
<glyph unicode="&#xc1;" horiz-adv-x="751" d="M23 51l213 1387q6 45 49 45h184q41 0 47 -45l213 -1387q3 -24 -7 -37.5t-32 -13.5h-86q-18 0 -30 10.5t-13 30.5l-43 281h-285l-40 -281q-6 -41 -46 -41h-86q-21 0 -31 14.5t-7 36.5zM227 1606q-16 31 17 51l295 184q35 18 53 -16l35 -64q19 -37 -17 -53l-315 -147 q-34 -15 -51 14zM252 465h246l-70 477l-47 397h-10l-47 -397z" />
<glyph unicode="&#xc2;" horiz-adv-x="751" d="M23 51l213 1387q6 45 49 45h184q41 0 47 -45l213 -1387q3 -24 -7 -37.5t-32 -13.5h-86q-18 0 -30 10.5t-13 30.5l-43 281h-285l-40 -281q-6 -41 -46 -41h-86q-21 0 -31 14.5t-7 36.5zM84 1602q-18 29 12 53l228 176q14 12 32 12h43q17 0 31 -12l229 -176q29 -20 13 -53 l-17 -27q-20 -28 -55 -10l-223 121l-221 -123q-39 -17 -56 12zM252 465h246l-70 477l-47 397h-10l-47 -397z" />
<glyph unicode="&#xc3;" horiz-adv-x="751" d="M23 51l213 1387q6 45 49 45h184q41 0 47 -45l213 -1387q3 -24 -7 -37.5t-32 -13.5h-86q-18 0 -30 10.5t-13 30.5l-43 281h-285l-40 -281q-6 -41 -46 -41h-86q-21 0 -31 14.5t-7 36.5zM94 1608v34q0 63 31 106t75.5 57t94.5 4.5t86 -42.5l86 -71q25 -23 50.5 -12t25.5 47 v30q0 37 37 37h41q36 0 36 -37v-35q0 -64 -30.5 -107t-74.5 -57t-94 -5t-87 42l-86 74q-23 21 -49.5 11t-26.5 -46v-30q0 -37 -37 -37h-41q-37 0 -37 37zM252 465h246l-70 477l-47 397h-10l-47 -397z" />
<glyph unicode="&#xc4;" horiz-adv-x="751" d="M23 51l213 1387q6 45 49 45h184q41 0 47 -45l213 -1387q3 -24 -7 -37.5t-32 -13.5h-86q-18 0 -30 10.5t-13 30.5l-43 281h-285l-40 -281q-6 -41 -46 -41h-86q-21 0 -31 14.5t-7 36.5zM111 1690q0 41 26.5 67.5t67.5 26.5q43 0 69.5 -26.5t26.5 -67.5q0 -43 -26.5 -69 t-69.5 -26q-41 0 -67.5 26.5t-26.5 68.5zM252 465h246l-70 477l-47 397h-10l-47 -397zM453 1690q0 42 26 68t68 26q41 0 67.5 -26.5t26.5 -67.5q0 -42 -26.5 -68.5t-67.5 -26.5q-43 0 -68.5 26t-25.5 69z" />
<glyph unicode="&#xc5;" horiz-adv-x="751" d="M23 51l213 1387q6 45 49 45h184q41 0 47 -45l213 -1387q3 -24 -7 -37.5t-32 -13.5h-86q-18 0 -30 10.5t-13 30.5l-43 281h-285l-40 -281q-6 -41 -46 -41h-86q-21 0 -31 14.5t-7 36.5zM201 1688q0 77 49 125.5t127 48.5q77 0 125.5 -49t48.5 -125q0 -78 -48.5 -127.5 t-125.5 -49.5q-78 0 -127 49.5t-49 127.5zM252 465h246l-70 477l-47 397h-10l-47 -397zM299 1688q0 -36 21.5 -59t56.5 -23q33 0 54.5 23t21.5 59q0 34 -21.5 56.5t-54.5 22.5q-35 0 -56.5 -22.5t-21.5 -56.5z" />
<glyph unicode="&#xc6;" horiz-adv-x="1093" d="M4 57l393 1393q9 33 49 33h584q43 0 43 -43v-56q0 -45 -43 -45h-338v-526h260q43 0 43 -43v-55q0 -45 -43 -45h-260v-527h338q43 0 43 -43v-55q0 -45 -43 -45h-465q-43 0 -43 45v277h-274l-76 -289q-8 -33 -39 -33h-92q-26 0 -35 17t-2 40zM287 465h235v862h-12l-98 -403 z" />
<glyph unicode="&#xc7;" horiz-adv-x="794" d="M82 291v901q0 76 15 129.5t50 93.5t97 59t153 19q177 0 246.5 -73.5t69.5 -227.5v-240q0 -45 -45 -45h-82q-45 0 -45 45v240q0 80 -30.5 119t-113.5 39t-113 -39t-30 -119v-901q0 -80 30 -119t113 -39t113.5 39t30.5 119v241q0 43 45 43h82q45 0 45 -43v-241 q0 -143 -58.5 -216t-205.5 -83l-35 -90q153 -10 153 -156q0 -85 -43.5 -120.5t-130.5 -35.5h-84q-39 0 -39 39v29q0 39 39 39h74q63 0 63 49q0 27 -15 38t-48 11h-53q-39 0 -39 39v37q0 14 6 29l37 94q-140 12 -196 84t-56 213z" />
<glyph unicode="&#xc8;" horiz-adv-x="655" d="M82 45v1395q0 43 45 43h463q45 0 45 -43v-56q0 -45 -45 -45h-336v-526h258q45 0 45 -43v-55q0 -45 -45 -45h-258v-527h336q45 0 45 -43v-55q0 -45 -45 -45h-463q-45 0 -45 45zM133 1761l33 64q18 34 53 16l295 -184q33 -17 16 -51l-16 -31q-17 -29 -51 -14l-313 147 q-37 15 -17 53z" />
<glyph unicode="&#xc9;" horiz-adv-x="655" d="M82 45v1395q0 43 45 43h463q45 0 45 -43v-56q0 -45 -45 -45h-336v-526h258q45 0 45 -43v-55q0 -45 -45 -45h-258v-527h336q45 0 45 -43v-55q0 -45 -45 -45h-463q-45 0 -45 45zM176 1606q-16 31 17 51l294 184q36 19 54 -16l34 -64q20 -38 -16 -53l-315 -147 q-34 -15 -51 14z" />
<glyph unicode="&#xca;" horiz-adv-x="655" d="M63 1602q-17 29 13 53l227 176q14 12 33 12h43q17 0 31 -12l229 -176q29 -20 12 -53l-16 -27q-20 -28 -55 -10l-224 121l-221 -123q-38 -16 -55 12zM82 45v1395q0 43 45 43h463q45 0 45 -43v-56q0 -45 -45 -45h-336v-526h258q45 0 45 -43v-55q0 -45 -45 -45h-258v-527 h336q45 0 45 -43v-55q0 -45 -45 -45h-463q-45 0 -45 45z" />
<glyph unicode="&#xcb;" horiz-adv-x="655" d="M82 45v1395q0 43 45 43h463q45 0 45 -43v-56q0 -45 -45 -45h-336v-526h258q45 0 45 -43v-55q0 -45 -45 -45h-258v-527h336q45 0 45 -43v-55q0 -45 -45 -45h-463q-45 0 -45 45zM90 1690q0 41 26.5 67.5t67.5 26.5q43 0 70 -26.5t27 -67.5q0 -43 -27 -69t-70 -26 q-42 0 -68 26.5t-26 68.5zM432 1690q0 42 26 68t68 26q41 0 68 -26.5t27 -67.5q0 -42 -26.5 -68.5t-68.5 -26.5q-43 0 -68.5 26t-25.5 69z" />
<glyph unicode="&#xcc;" horiz-adv-x="335" d="M-104 1761l32 64q18 35 54 16l294 -184q34 -18 17 -51l-17 -31q-17 -29 -51 -14l-313 147q-36 14 -16 53zM82 45v1395q0 43 45 43h82q45 0 45 -43v-1395q0 -45 -45 -45h-82q-45 0 -45 45z" />
<glyph unicode="&#xcd;" horiz-adv-x="335" d="M47 1606q-16 32 16 51l295 184q36 19 54 -16l34 -64q20 -38 -16 -53l-315 -147q-35 -15 -52 14zM82 45v1395q0 43 45 43h82q45 0 45 -43v-1395q0 -45 -45 -45h-82q-45 0 -45 45z" />
<glyph unicode="&#xce;" horiz-adv-x="335" d="M-125 1602q-18 29 12 53l228 176q14 12 32 12h43q17 0 31 -12l230 -176q29 -20 12 -53l-17 -27q-20 -28 -55 -10l-223 121l-221 -123q-39 -17 -56 12zM82 45v1395q0 43 45 43h82q45 0 45 -43v-1395q0 -45 -45 -45h-82q-45 0 -45 45z" />
<glyph unicode="&#xcf;" horiz-adv-x="335" d="M-96 1690q0 41 26.5 67.5t67.5 26.5q43 0 69.5 -26.5t26.5 -67.5q0 -43 -26.5 -69t-69.5 -26q-42 0 -68 26.5t-26 68.5zM82 45v1395q0 43 45 43h82q45 0 45 -43v-1395q0 -45 -45 -45h-82q-45 0 -45 45zM246 1690q0 42 26 68t68 26q41 0 67.5 -26.5t26.5 -67.5 q0 -42 -26 -68.5t-68 -26.5q-43 0 -68.5 26t-25.5 69z" />
<glyph unicode="&#xd0;" horiz-adv-x="778" d="M-37 713v57q0 39 41 39h78v631q0 43 45 43h229q99 0 166 -21t105 -64.5t53.5 -101.5t15.5 -141v-825q0 -84 -15.5 -142t-53.5 -102t-105 -65t-166 -21h-229q-45 0 -45 45v629h-78q-41 0 -41 39zM254 143h102q98 0 134 46t36 141v825q0 94 -36 139t-134 45h-102v-530h113 q39 0 39 -39v-57q0 -39 -39 -39h-113v-531z" />
<glyph unicode="&#xd1;" horiz-adv-x="798" d="M82 45v1395q0 43 45 43h106q39 0 48 -39l204 -768l72 -301l10 2l-16 309v754q0 43 45 43h78q43 0 43 -43v-1395q0 -45 -43 -45h-109q-21 0 -31 9t-16 30l-205 768l-71 301l-11 -2l17 -309v-752q0 -45 -43 -45h-78q-45 0 -45 45zM119 1608v34q0 63 31 106t75.5 57 t94.5 4.5t86 -42.5l86 -71q25 -22 50 -11.5t25 46.5v30q0 37 37 37h41q37 0 37 -37v-35q0 -64 -31 -107t-75 -57t-94 -5t-87 42l-86 74q-23 21 -49.5 11t-26.5 -46v-30q0 -37 -36 -37h-41q-37 0 -37 37z" />
<glyph unicode="&#xd2;" horiz-adv-x="794" d="M82 291v901q0 76 15 129.5t50 93.5t97 59t153 19q177 0 246.5 -73.5t69.5 -227.5v-901q0 -154 -69.5 -227.5t-246.5 -73.5q-91 0 -153 19t-97 59t-50 93.5t-15 129.5zM178 1761l33 64q18 34 53 16l295 -184q33 -17 16 -51l-16 -31q-17 -29 -51 -14l-313 147 q-37 15 -17 53zM254 291q0 -80 30 -119t113 -39t113.5 39t30.5 119v901q0 80 -30.5 119t-113.5 39t-113 -39t-30 -119v-901z" />
<glyph unicode="&#xd3;" horiz-adv-x="794" d="M82 291v901q0 76 15 129.5t50 93.5t97 59t153 19q177 0 246.5 -73.5t69.5 -227.5v-901q0 -154 -69.5 -227.5t-246.5 -73.5q-91 0 -153 19t-97 59t-50 93.5t-15 129.5zM217 1606q-16 32 16 51l295 184q36 19 54 -16l34 -64q20 -38 -16 -53l-315 -147q-35 -15 -52 14z M254 291q0 -80 30 -119t113 -39t113.5 39t30.5 119v901q0 80 -30.5 119t-113.5 39t-113 -39t-30 -119v-901z" />
<glyph unicode="&#xd4;" horiz-adv-x="794" d="M82 291v901q0 76 15 129.5t50 93.5t97 59t153 19q177 0 246.5 -73.5t69.5 -227.5v-901q0 -154 -69.5 -227.5t-246.5 -73.5q-91 0 -153 19t-97 59t-50 93.5t-15 129.5zM104 1602q-17 29 13 53l227 176q14 12 33 12h43q17 0 31 -12l229 -176q29 -20 12 -53l-16 -27 q-20 -28 -55 -10l-224 121l-221 -123q-38 -16 -55 12zM254 291q0 -80 30 -119t113 -39t113.5 39t30.5 119v901q0 80 -30.5 119t-113.5 39t-113 -39t-30 -119v-901z" />
<glyph unicode="&#xd5;" horiz-adv-x="794" d="M82 291v901q0 76 15 129.5t50 93.5t97 59t153 19q177 0 246.5 -73.5t69.5 -227.5v-901q0 -154 -69.5 -227.5t-246.5 -73.5q-91 0 -153 19t-97 59t-50 93.5t-15 129.5zM117 1608v34q0 63 31 106t75 57t94 4.5t86 -42.5l86 -71q25 -23 50.5 -12t25.5 47v30q0 37 37 37h41 q37 0 37 -37v-35q0 -64 -31 -107t-75 -57t-94 -5t-87 42l-86 74q-23 21 -49.5 11t-26.5 -46v-30q0 -37 -36 -37h-41q-37 0 -37 37zM254 291q0 -80 30 -119t113 -39t113.5 39t30.5 119v901q0 80 -30.5 119t-113.5 39t-113 -39t-30 -119v-901z" />
<glyph unicode="&#xd6;" horiz-adv-x="794" d="M82 291v901q0 76 15 129.5t50 93.5t97 59t153 19q177 0 246.5 -73.5t69.5 -227.5v-901q0 -154 -69.5 -227.5t-246.5 -73.5q-91 0 -153 19t-97 59t-50 93.5t-15 129.5zM131 1690q0 41 26.5 67.5t67.5 26.5q43 0 70 -26.5t27 -67.5q0 -43 -27 -69t-70 -26q-41 0 -67.5 26.5 t-26.5 68.5zM254 291q0 -80 30 -119t113 -39t113.5 39t30.5 119v901q0 80 -30.5 119t-113.5 39t-113 -39t-30 -119v-901zM473 1690q0 42 26 68t68 26q41 0 68 -26.5t27 -67.5q0 -42 -26.5 -68.5t-68.5 -26.5q-43 0 -68.5 26t-25.5 69z" />
<glyph unicode="&#xd7;" horiz-adv-x="823" d="M106 477q-30 30 0 64l203 202l-203 203q-31 36 0 64l39 39q30 30 64 0l203 -203l202 203q36 31 64 0l39 -39q31 -28 0 -64l-203 -203l203 -202q30 -34 0 -64l-39 -39q-28 -31 -64 0l-202 203l-203 -203q-34 -30 -64 0z" />
<glyph unicode="&#xd8;" horiz-adv-x="794" d="M82 291v901q0 76 15 129.5t50 93.5t97 59t153 19q87 0 148 -18l33 112q12 44 55 29l39 -10q40 -15 28 -58l-43 -145q56 -67 56 -211v-901q0 -154 -69.5 -227.5t-246.5 -73.5q-91 0 -149 18l-31 -112q-12 -44 -55 -29l-39 10q-41 15 -29 57l41 144q-53 66 -53 213z M240 393l12 -2l82 342l166 590q-39 27 -103 27q-83 0 -113 -39t-30 -119v-436zM295 160q39 -27 102 -27q83 0 113.5 39t30.5 119v436l12 363l-10 4l-82 -344z" />
<glyph unicode="&#xd9;" horiz-adv-x="794" d="M82 291v1149q0 43 45 43h82q45 0 45 -43v-1149q0 -80 30 -119t113 -39t113.5 39t30.5 119v1149q0 43 45 43h82q45 0 45 -43v-1149q0 -154 -69.5 -227.5t-246.5 -73.5q-91 0 -153 19t-97 59t-50 93.5t-15 129.5zM158 1761l32 64q18 35 54 16l295 -184q33 -17 16 -51 l-16 -31q-17 -29 -52 -14l-313 147q-36 14 -16 53z" />
<glyph unicode="&#xda;" horiz-adv-x="794" d="M82 291v1149q0 43 45 43h82q45 0 45 -43v-1149q0 -80 30 -119t113 -39t113.5 39t30.5 119v1149q0 43 45 43h82q45 0 45 -43v-1149q0 -154 -69.5 -227.5t-246.5 -73.5q-91 0 -153 19t-97 59t-50 93.5t-15 129.5zM238 1606q-16 32 16 51l295 184q35 18 53 -16l35 -64 q20 -38 -16 -53l-316 -147q-34 -15 -51 14z" />
<glyph unicode="&#xdb;" horiz-adv-x="794" d="M82 291v1149q0 43 45 43h82q45 0 45 -43v-1149q0 -80 30 -119t113 -39t113.5 39t30.5 119v1149q0 43 45 43h82q45 0 45 -43v-1149q0 -154 -69.5 -227.5t-246.5 -73.5q-91 0 -153 19t-97 59t-50 93.5t-15 129.5zM104 1602q-17 29 13 53l227 176q14 12 33 12h43 q17 0 31 -12l229 -176q29 -20 12 -53l-16 -27q-20 -28 -55 -10l-224 121l-221 -123q-38 -16 -55 12z" />
<glyph unicode="&#xdc;" horiz-adv-x="794" d="M82 291v1149q0 43 45 43h82q45 0 45 -43v-1149q0 -80 30 -119t113 -39t113.5 39t30.5 119v1149q0 43 45 43h82q45 0 45 -43v-1149q0 -154 -69.5 -227.5t-246.5 -73.5q-91 0 -153 19t-97 59t-50 93.5t-15 129.5zM131 1690q0 41 26.5 67.5t67.5 26.5q43 0 70 -26.5 t27 -67.5q0 -43 -27 -69t-70 -26q-41 0 -67.5 26.5t-26.5 68.5zM473 1690q0 42 26 68t68 26q41 0 68 -26.5t27 -67.5q0 -42 -26.5 -68.5t-68.5 -26.5q-43 0 -68.5 26t-25.5 69z" />
<glyph unicode="&#xdd;" horiz-adv-x="755" d="M25 1427q-8 22 2.5 39t33.5 17h86q37 0 46 -31l104 -350l76 -303h10l76 303l102 350q9 31 45 31h88q23 0 33 -17t4 -39l-268 -849v-533q0 -45 -43 -45h-84q-43 0 -43 45v533zM223 1606q-16 31 17 51l295 184q35 18 53 -16l35 -64q19 -37 -17 -53l-315 -147 q-34 -15 -51 14z" />
<glyph unicode="&#xde;" horiz-adv-x="733" d="M82 45v1395q0 43 45 43h82q45 0 45 -43v-264h96q99 0 166 -21t105.5 -64.5t54.5 -101.5t16 -141v-211q0 -83 -16 -142t-54.5 -102.5t-105.5 -64.5t-166 -21h-96v-262q0 -45 -45 -45h-82q-45 0 -45 45zM254 451h96q98 0 134 45.5t36 140.5v211q0 94 -36 139t-134 45h-96 v-581z" />
<glyph unicode="&#xdf;" horiz-adv-x="731" d="M82 45v1331q0 139 62 206t221 67q160 0 222 -67t62 -206v-182q0 -102 -32 -163t-111 -83v-14q79 -22 111 -83t32 -163v-444q0 -124 -56.5 -184t-197.5 -60h-41q-43 0 -43 45v43q0 43 43 43h41q51 0 74 26t23 89v493q0 69 -25.5 102t-93.5 33h-19q-43 0 -43 46v43 q0 43 43 43h19q68 0 93.5 33t25.5 104v233q0 73 -27 107.5t-100 34.5q-72 0 -98.5 -34.5t-26.5 -107.5v-1331q0 -45 -45 -45h-68q-45 0 -45 45z" />
<glyph unicode="&#xe0;" d="M82 178v217q0 125 56.5 184.5t199.5 59.5h100v264q0 65 -23 90t-77 25q-52 0 -75 -25.5t-23 -89.5v-88q0 -43 -45 -43h-68q-45 0 -45 43v90q0 125 56.5 184.5t199.5 59.5t198.5 -59t57.5 -185v-862q0 -43 -43 -43h-70q-43 0 -43 43v27q-39 -38 -89.5 -59t-98.5 -21 q-73 0 -120.5 47.5t-47.5 140.5zM145 1466q-29 29 5 56l53 49q30 24 55 -4l201 -260q28 -28 -2 -54l-23 -22q-28 -23 -55 4zM240 242q0 -66 19.5 -90.5t70.5 -24.5q108 0 108 121v262h-100q-52 0 -75 -26t-23 -89v-153z" />
<glyph unicode="&#xe1;" d="M82 178v217q0 125 56.5 184.5t199.5 59.5h100v264q0 65 -23 90t-77 25q-52 0 -75 -25.5t-23 -89.5v-88q0 -43 -45 -43h-68q-45 0 -45 43v90q0 125 56.5 184.5t199.5 59.5t198.5 -59t57.5 -185v-862q0 -43 -43 -43h-70q-43 0 -43 43v27q-39 -38 -89.5 -59t-98.5 -21 q-73 0 -120.5 47.5t-47.5 140.5zM219 1307l201 260q25 28 55 4l53 -49q31 -27 2 -56l-231 -231q-27 -27 -55 -4l-23 22q-30 26 -2 54zM240 242q0 -66 19.5 -90.5t70.5 -24.5q108 0 108 121v262h-100q-52 0 -75 -26t-23 -89v-153z" />
<glyph unicode="&#xe2;" d="M82 178v217q0 125 56.5 184.5t199.5 59.5h100v264q0 65 -23 90t-77 25q-52 0 -75 -25.5t-23 -89.5v-88q0 -43 -45 -43h-68q-45 0 -45 43v90q0 125 56.5 184.5t199.5 59.5t198.5 -59t57.5 -185v-862q0 -43 -43 -43h-70q-43 0 -43 43v27q-39 -38 -89.5 -59t-98.5 -21 q-73 0 -120.5 47.5t-47.5 140.5zM104 1311l179 252q11 20 41 20h30q27 0 41 -20l176 -252q20 -29 -4 -51l-22 -21q-29 -23 -53 4l-154 172l-154 -172q-24 -27 -53 -4l-22 21q-25 22 -5 51zM240 242q0 -66 19.5 -90.5t70.5 -24.5q108 0 108 121v262h-100q-52 0 -75 -26 t-23 -89v-153z" />
<glyph unicode="&#xe3;" d="M68 1313v53q0 78 53.5 121.5t124.5 35.5t119 -63l51 -59q25 -28 52.5 -17.5t27.5 39.5v45q0 37 36 37h41q37 0 37 -37v-55q0 -77 -53 -120.5t-124 -35.5t-120 64l-51 57q-25 28 -52.5 18.5t-27.5 -38.5v-45q0 -37 -37 -37h-41q-36 0 -36 37zM82 178v217q0 125 56.5 184.5 t199.5 59.5h100v264q0 65 -23 90t-77 25q-52 0 -75 -25.5t-23 -89.5v-88q0 -43 -45 -43h-68q-45 0 -45 43v90q0 125 56.5 184.5t199.5 59.5t198.5 -59t57.5 -185v-862q0 -43 -43 -43h-70q-43 0 -43 43v27q-39 -38 -89.5 -59t-98.5 -21q-73 0 -120.5 47.5t-47.5 140.5z M240 242q0 -66 19.5 -90.5t70.5 -24.5q108 0 108 121v262h-100q-52 0 -75 -26t-23 -89v-153z" />
<glyph unicode="&#xe4;" d="M82 178v217q0 125 56.5 184.5t199.5 59.5h100v264q0 65 -23 90t-77 25q-52 0 -75 -25.5t-23 -89.5v-88q0 -43 -45 -43h-68q-45 0 -45 43v90q0 125 56.5 184.5t199.5 59.5t198.5 -59t57.5 -185v-862q0 -43 -43 -43h-70q-43 0 -43 43v27q-39 -38 -89.5 -59t-98.5 -21 q-73 0 -120.5 47.5t-47.5 140.5zM102 1389q0 41 26 66.5t67 25.5t66.5 -25.5t25.5 -66.5t-25.5 -67t-66.5 -26t-67 26t-26 67zM240 242q0 -66 19.5 -90.5t70.5 -24.5q108 0 108 121v262h-100q-52 0 -75 -26t-23 -89v-153zM397 1389q0 41 25 66.5t65 25.5q41 0 67 -25.5 t26 -66.5t-26 -67t-67 -26q-40 0 -65 26t-25 67z" />
<glyph unicode="&#xe5;" d="M82 178v217q0 125 56.5 184.5t199.5 59.5h100v264q0 65 -23 90t-77 25q-52 0 -75 -25.5t-23 -89.5v-88q0 -43 -45 -43h-68q-45 0 -45 43v90q0 125 56.5 184.5t199.5 59.5t198.5 -59t57.5 -185v-862q0 -43 -43 -43h-70q-43 0 -43 43v27q-39 -38 -89.5 -59t-98.5 -21 q-73 0 -120.5 47.5t-47.5 140.5zM162 1403q0 78 49 127t127 49q77 0 125.5 -49t48.5 -127t-48.5 -126t-125.5 -48q-78 0 -127 48t-49 126zM240 242q0 -66 19.5 -90.5t70.5 -24.5q108 0 108 121v262h-100q-52 0 -75 -26t-23 -89v-153zM260 1403q0 -35 21.5 -57.5t56.5 -22.5 q34 0 55 22.5t21 57.5q0 36 -21.5 59t-54.5 23q-35 0 -56.5 -23t-21.5 -59z" />
<glyph unicode="&#xe6;" horiz-adv-x="1032" d="M82 178v217q0 125 56.5 184.5t199.5 59.5h100v264q0 65 -23 90t-77 25q-52 0 -75 -25.5t-23 -89.5v-88q0 -43 -45 -43h-68q-45 0 -45 43v90q0 125 56 184.5t196 59.5q119 0 182 -66q63 66 182 66q139 0 195.5 -60t56.5 -184v-352q0 -47 -49 -47h-307v-270q0 -63 23.5 -89 t76.5 -26q52 0 75.5 26t23.5 89v73q0 43 45 43h67q45 0 45 -43v-76q0 -124 -57 -183.5t-199 -59.5q-72 0 -129 24t-80 64q-84 -88 -231 -88q-74 0 -123 47.5t-49 140.5zM240 242q0 -66 19.5 -90.5t70.5 -24.5q108 0 108 121v262h-100q-52 0 -75 -26t-23 -89v-153zM594 635 h199v268q0 64 -23 89.5t-76 25.5q-54 0 -77 -25t-23 -90v-268z" />
<glyph unicode="&#xe7;" d="M82 233v672q0 125 56.5 184.5t199.5 59.5t199.5 -59.5t56.5 -184.5v-162q0 -43 -43 -43h-70q-43 0 -43 43v160q0 65 -23 90t-77 25q-52 0 -75 -25.5t-23 -89.5v-667q0 -63 23 -89t75 -26q53 0 76.5 26t23.5 89v159q0 45 43 45h70q43 0 43 -45v-162q0 -111 -44.5 -170 t-152.5 -69l-35 -92q154 -10 154 -156q0 -85 -43.5 -120.5t-130.5 -35.5h-84q-39 0 -39 39v29q0 39 39 39h74q63 0 63 49q0 27 -15 38t-48 11h-53q-39 0 -39 39v37q0 14 6 29l37 92q-111 10 -156 69t-45 172z" />
<glyph unicode="&#xe8;" d="M82 233v672q0 125 56.5 184.5t199.5 59.5t199.5 -59.5t56.5 -184.5v-352q0 -47 -47 -47h-307v-270q0 -63 23 -89t75 -26q53 0 76.5 26t23.5 89v73q0 43 43 43h70q43 0 43 -43v-76q0 -125 -56.5 -184t-199.5 -59t-199.5 59t-56.5 184zM162 1466q-29 29 4 56l53 49 q30 24 55 -4l201 -260q28 -28 -2 -54l-22 -22q-29 -23 -56 4zM240 635h198v268q0 65 -23 90t-77 25q-52 0 -75 -25.5t-23 -89.5v-268z" />
<glyph unicode="&#xe9;" d="M82 233v672q0 125 56.5 184.5t199.5 59.5t199.5 -59.5t56.5 -184.5v-352q0 -47 -47 -47h-307v-270q0 -63 23 -89t75 -26q53 0 76.5 26t23.5 89v73q0 43 43 43h70q43 0 43 -43v-76q0 -125 -56.5 -184t-199.5 -59t-199.5 59t-56.5 184zM205 1307l201 260q25 28 55 4l53 -49 q31 -27 2 -56l-231 -231q-27 -27 -56 -4l-22 22q-30 26 -2 54zM240 635h198v268q0 65 -23 90t-77 25q-52 0 -75 -25.5t-23 -89.5v-268z" />
<glyph unicode="&#xea;" d="M82 233v672q0 125 56.5 184.5t199.5 59.5t199.5 -59.5t56.5 -184.5v-352q0 -47 -47 -47h-307v-270q0 -63 23 -89t75 -26q53 0 76.5 26t23.5 89v73q0 43 43 43h70q43 0 43 -43v-76q0 -125 -56.5 -184t-199.5 -59t-199.5 59t-56.5 184zM104 1311l179 252q11 20 41 20h30 q27 0 41 -20l176 -252q20 -29 -4 -51l-22 -21q-29 -23 -53 4l-154 172l-154 -172q-24 -27 -53 -4l-22 21q-25 22 -5 51zM240 635h198v268q0 65 -23 90t-77 25q-52 0 -75 -25.5t-23 -89.5v-268z" />
<glyph unicode="&#xeb;" d="M82 233v672q0 125 56.5 184.5t199.5 59.5t199.5 -59.5t56.5 -184.5v-352q0 -47 -47 -47h-307v-270q0 -63 23 -89t75 -26q53 0 76.5 26t23.5 89v73q0 43 43 43h70q43 0 43 -43v-76q0 -125 -56.5 -184t-199.5 -59t-199.5 59t-56.5 184zM100 1389q0 41 26 66.5t67 25.5 t66.5 -25.5t25.5 -66.5t-25.5 -67t-66.5 -26t-67 26t-26 67zM240 635h198v268q0 65 -23 90t-77 25q-52 0 -75 -25.5t-23 -89.5v-268zM395 1389q0 41 25 66.5t65 25.5q41 0 67 -25.5t26 -66.5t-26 -67t-67 -26q-40 0 -65 26t-25 67z" />
<glyph unicode="&#xec;" horiz-adv-x="321" d="M-49 1466q-29 29 4 56l53 49q30 24 55 -4l201 -260q28 -28 -2 -54l-22 -22q-29 -23 -56 4zM82 45v1051q0 43 45 43h68q45 0 45 -43v-1051q0 -45 -45 -45h-68q-45 0 -45 45z" />
<glyph unicode="&#xed;" horiz-adv-x="321" d="M61 1307l201 260q25 28 55 4l54 -49q31 -27 2 -56l-232 -231q-27 -27 -55 -4l-23 22q-30 26 -2 54zM82 45v1051q0 43 45 43h68q45 0 45 -43v-1051q0 -45 -45 -45h-68q-45 0 -45 45z" />
<glyph unicode="&#xee;" horiz-adv-x="321" d="M-72 1311l178 252q11 20 41 20h31q27 0 41 -20l176 -252q20 -29 -4 -51l-22 -21q-29 -24 -54 4l-153 172l-154 -172q-24 -27 -53 -4l-23 21q-24 22 -4 51zM82 45v1051q0 43 45 43h68q45 0 45 -43v-1051q0 -45 -45 -45h-68q-45 0 -45 45z" />
<glyph unicode="&#xef;" horiz-adv-x="321" d="M-78 1389q0 41 25.5 66.5t66.5 25.5t66.5 -25.5t25.5 -66.5t-25.5 -67t-66.5 -26t-66.5 26t-25.5 67zM82 45v1051q0 43 45 43h68q45 0 45 -43v-1051q0 -45 -45 -45h-68q-45 0 -45 45zM217 1389q0 41 25 66.5t65 25.5q41 0 66.5 -25.5t25.5 -66.5t-25.5 -67t-66.5 -26 q-40 0 -65 26t-25 67z" />
<glyph unicode="&#xf0;" d="M82 233v728q0 95 48.5 141.5t119.5 46.5q93 0 174 -66q-14 112 -62 242l-137 -59q-34 -18 -49 20l-18 37q-13 40 20 51l135 60q-45 84 -86 147q-12 22 -4.5 39.5t29.5 17.5h80q38 0 55 -28q46 -71 68 -117l133 59q34 15 51 -20l16 -37q12 -37 -20 -51l-131 -58 q90 -232 90 -520v-633q0 -125 -56.5 -184t-199.5 -59t-199.5 59t-56.5 184zM240 236q0 -63 23 -89t75 -26q53 0 76.5 26t23.5 89v655q0 123 -108 123q-51 0 -70.5 -25t-19.5 -90v-663z" />
<glyph unicode="&#xf1;" d="M68 1313v53q0 78 53.5 121.5t124.5 35.5t119 -63l51 -59q25 -28 52.5 -17.5t27.5 39.5v45q0 37 36 37h41q37 0 37 -37v-55q0 -77 -53 -120.5t-124 -35.5t-120 64l-51 57q-25 28 -52.5 18.5t-27.5 -38.5v-45q0 -37 -37 -37h-41q-36 0 -36 37zM82 43v1053q0 43 45 43h68 q45 0 45 -43v-27q38 38 88 59t98 21q73 0 120.5 -47.5t47.5 -140.5v-918q0 -43 -43 -43h-70q-43 0 -43 43v856q0 64 -20.5 89.5t-71.5 25.5q-106 0 -106 -123v-848q0 -43 -45 -43h-68q-45 0 -45 43z" />
<glyph unicode="&#xf2;" d="M82 233v672q0 125 56.5 184.5t199.5 59.5t199.5 -59.5t56.5 -184.5v-672q0 -125 -56.5 -184t-199.5 -59t-199.5 59t-56.5 184zM160 1466q-29 29 4 56l53 49q30 24 55 -4l201 -260q28 -28 -2 -54l-22 -22q-29 -23 -56 4zM240 236q0 -63 23 -89t75 -26q53 0 76.5 26 t23.5 89v667q0 65 -23 90t-77 25q-52 0 -75 -25.5t-23 -89.5v-667z" />
<glyph unicode="&#xf3;" d="M82 233v672q0 125 56.5 184.5t199.5 59.5t199.5 -59.5t56.5 -184.5v-672q0 -125 -56.5 -184t-199.5 -59t-199.5 59t-56.5 184zM203 1307l200 260q25 29 56 4l53 -49q31 -27 2 -56l-231 -231q-27 -27 -56 -4l-22 22q-30 26 -2 54zM240 236q0 -63 23 -89t75 -26 q53 0 76.5 26t23.5 89v667q0 65 -23 90t-77 25q-52 0 -75 -25.5t-23 -89.5v-667z" />
<glyph unicode="&#xf4;" d="M82 233v672q0 125 56.5 184.5t199.5 59.5t199.5 -59.5t56.5 -184.5v-672q0 -125 -56.5 -184t-199.5 -59t-199.5 59t-56.5 184zM104 1311l179 252q11 20 41 20h30q27 0 41 -20l176 -252q20 -29 -4 -51l-22 -21q-29 -23 -53 4l-154 172l-154 -172q-24 -27 -53 -4l-22 21 q-25 22 -5 51zM240 236q0 -63 23 -89t75 -26q53 0 76.5 26t23.5 89v667q0 65 -23 90t-77 25q-52 0 -75 -25.5t-23 -89.5v-667z" />
<glyph unicode="&#xf5;" d="M68 1313v53q0 78 53.5 121.5t124.5 35.5t119 -63l51 -59q25 -28 52.5 -17.5t27.5 39.5v45q0 37 36 37h41q37 0 37 -37v-55q0 -77 -53 -120.5t-124 -35.5t-120 64l-51 57q-25 28 -52.5 18.5t-27.5 -38.5v-45q0 -37 -37 -37h-41q-36 0 -36 37zM82 233v672q0 125 56.5 184.5 t199.5 59.5t199.5 -59.5t56.5 -184.5v-672q0 -125 -56.5 -184t-199.5 -59t-199.5 59t-56.5 184zM240 236q0 -63 23 -89t75 -26q53 0 76.5 26t23.5 89v667q0 65 -23 90t-77 25q-52 0 -75 -25.5t-23 -89.5v-667z" />
<glyph unicode="&#xf6;" d="M82 233v672q0 125 56.5 184.5t199.5 59.5t199.5 -59.5t56.5 -184.5v-672q0 -125 -56.5 -184t-199.5 -59t-199.5 59t-56.5 184zM100 1389q0 41 26 66.5t67 25.5t66.5 -25.5t25.5 -66.5t-25.5 -67t-66.5 -26t-67 26t-26 67zM240 236q0 -63 23 -89t75 -26q53 0 76.5 26 t23.5 89v667q0 65 -23 90t-77 25q-52 0 -75 -25.5t-23 -89.5v-667zM395 1389q0 41 25 66.5t65 25.5q41 0 67 -25.5t26 -66.5t-26 -67t-67 -26q-40 0 -65 26t-25 67z" />
<glyph unicode="&#xf7;" horiz-adv-x="860" d="M82 717v55q0 43 45 43h608q43 0 43 -43v-55q0 -45 -43 -45h-608q-45 0 -45 45zM322 377q0 49 30 79.5t78 30.5q50 0 80.5 -30.5t30.5 -79.5q0 -48 -31 -78.5t-80 -30.5q-47 0 -77.5 31t-30.5 78zM322 1110q0 49 30.5 80t77.5 31q50 0 80.5 -30.5t30.5 -80.5 q0 -48 -31 -78.5t-80 -30.5q-47 0 -77.5 31t-30.5 78z" />
<glyph unicode="&#xf8;" d="M82 233v672q0 125 56.5 184.5t199.5 59.5q62 0 108 -12l31 108q12 42 55 27l27 -6q44 -12 29 -56l-39 -133q45 -53 45 -172v-672q0 -125 -56.5 -184t-199.5 -59q-62 0 -109 12l-30 -108q-16 -42 -56 -27l-28 6q-42 12 -29 55l39 135q-43 51 -43 170zM225 373l13 -4 l57 243l108 389q-20 17 -65 17q-52 0 -75 -25.5t-23 -89.5v-274zM272 139q24 -18 66 -18q53 0 76.5 26t23.5 89v274l13 258l-13 2l-57 -244z" />
<glyph unicode="&#xf9;" d="M82 178v918q0 43 45 43h68q45 0 45 -43v-854q0 -66 19.5 -90.5t70.5 -24.5q108 0 108 121v848q0 43 43 43h70q43 0 43 -43v-1053q0 -43 -43 -43h-70q-43 0 -43 43v27q-39 -38 -89.5 -59t-98.5 -21q-73 0 -120.5 47.5t-47.5 140.5zM141 1466q-29 29 4 56l54 49 q30 24 55 -4l201 -260q28 -28 -2 -54l-23 -22q-28 -23 -55 4z" />
<glyph unicode="&#xfa;" d="M82 178v918q0 43 45 43h68q45 0 45 -43v-854q0 -66 19.5 -90.5t70.5 -24.5q108 0 108 121v848q0 43 43 43h70q43 0 43 -43v-1053q0 -43 -43 -43h-70q-43 0 -43 43v27q-39 -38 -89.5 -59t-98.5 -21q-73 0 -120.5 47.5t-47.5 140.5zM223 1307l201 260q25 28 55 4l53 -49 q31 -28 3 -56l-232 -231q-27 -27 -55 -4l-23 22q-30 26 -2 54z" />
<glyph unicode="&#xfb;" d="M82 178v918q0 43 45 43h68q45 0 45 -43v-854q0 -66 19.5 -90.5t70.5 -24.5q108 0 108 121v848q0 43 43 43h70q43 0 43 -43v-1053q0 -43 -43 -43h-70q-43 0 -43 43v27q-39 -38 -89.5 -59t-98.5 -21q-73 0 -120.5 47.5t-47.5 140.5zM104 1311l179 252q11 20 41 20h30 q27 0 41 -20l176 -252q20 -29 -4 -51l-22 -21q-29 -23 -53 4l-154 172l-154 -172q-24 -27 -53 -4l-22 21q-25 22 -5 51z" />
<glyph unicode="&#xfc;" d="M82 178v918q0 43 45 43h68q45 0 45 -43v-854q0 -66 19.5 -90.5t70.5 -24.5q108 0 108 121v848q0 43 43 43h70q43 0 43 -43v-1053q0 -43 -43 -43h-70q-43 0 -43 43v27q-39 -38 -89.5 -59t-98.5 -21q-73 0 -120.5 47.5t-47.5 140.5zM100 1389q0 41 26 66.5t67 25.5 t66.5 -25.5t25.5 -66.5t-25.5 -67t-66.5 -26t-67 26t-26 67zM395 1389q0 41 25 66.5t65 25.5q41 0 67 -25.5t26 -66.5t-26 -67t-67 -26q-40 0 -65 26t-25 67z" />
<glyph unicode="&#xfd;" horiz-adv-x="587" d="M12 1085q-4 26 7.5 40t33.5 14h66q24 0 35 -9.5t14 -33.5l82 -576l39 -358h10l39 358l80 576q3 23 14.5 33t36.5 10h66q49 0 40 -54l-221 -1452q-3 -23 -14 -33t-35 -10h-65q-23 0 -34 13.5t-7 40.5l59 356h-35q-42 0 -51 43zM190 1307l201 260q25 28 55 4l54 -49 q31 -27 2 -56l-232 -231q-27 -27 -55 -4l-22 22q-30 27 -3 54z" />
<glyph unicode="&#xfe;" d="M82 -367v1962q0 43 45 43h68q45 0 45 -43v-526q38 38 88 59t98 21q73 0 120.5 -47.5t47.5 -140.5v-783q0 -93 -47.5 -140.5t-120.5 -47.5q-48 0 -98 21t-88 59v-437q0 -43 -45 -43h-68q-45 0 -45 43zM240 248q0 -63 26 -92t80 -29q51 0 71.5 25t20.5 90v657 q0 64 -20.5 89.5t-71.5 25.5q-106 0 -106 -123v-643z" />
<glyph unicode="&#xff;" horiz-adv-x="587" d="M12 1085q-4 26 7.5 40t33.5 14h66q24 0 35 -9.5t14 -33.5l82 -576l39 -358h10l39 358l80 576q3 23 14.5 33t36.5 10h66q49 0 40 -54l-221 -1452q-3 -23 -14 -33t-35 -10h-65q-23 0 -34 13.5t-7 40.5l59 356h-35q-42 0 -51 43zM63 1389q0 41 26 66.5t67 25.5t66.5 -25.5 t25.5 -66.5t-25.5 -67t-66.5 -26t-67 26t-26 67zM358 1389q0 41 25.5 66.5t65.5 25.5q41 0 66.5 -25.5t25.5 -66.5t-25.5 -67t-66.5 -26q-40 0 -65.5 26t-25.5 67z" />
<glyph unicode="&#x152;" horiz-adv-x="1114" d="M82 291v901q0 76 15 129.5t50 93.5t97 59t153 19q60 0 115 -10h537q45 0 45 -43v-56q0 -45 -45 -45h-357q21 -61 21 -147v-379h258q45 0 45 -43v-55q0 -45 -45 -45h-258v-379q0 -86 -21 -148h357q45 0 45 -43v-55q0 -45 -45 -45h-535q-55 -10 -117 -10q-91 0 -153 19 t-97 59t-50 93.5t-15 129.5zM254 291q0 -80 30 -119t113 -39t113.5 39t30.5 119v901q0 80 -30.5 119t-113.5 39t-113 -39t-30 -119v-901z" />
<glyph unicode="&#x153;" horiz-adv-x="1032" d="M82 233v672q0 125 56 184.5t196 59.5q119 0 182 -66q63 66 182 66q139 0 195.5 -60t56.5 -184v-352q0 -47 -49 -47h-307v-270q0 -63 23.5 -89t76.5 -26q52 0 75.5 26t23.5 89v73q0 43 45 43h67q45 0 45 -43v-76q0 -124 -56.5 -183.5t-195.5 -59.5q-118 0 -182 67 q-64 -67 -182 -67q-140 0 -196 59t-56 184zM240 236q0 -63 23 -89t75 -26q53 0 76.5 26t23.5 89v667q0 65 -23 90t-77 25q-52 0 -75 -25.5t-23 -89.5v-667zM594 635h199v268q0 64 -23 89.5t-76 25.5q-54 0 -77 -25t-23 -90v-268z" />
<glyph unicode="&#x178;" horiz-adv-x="755" d="M25 1427q-8 22 2.5 39t33.5 17h86q37 0 46 -31l104 -350l76 -303h10l76 303l102 350q9 31 45 31h88q23 0 33 -17t4 -39l-268 -849v-533q0 -45 -43 -45h-84q-43 0 -43 45v533zM113 1690q0 41 26.5 67.5t67.5 26.5q43 0 69.5 -26.5t26.5 -67.5q0 -43 -26.5 -69t-69.5 -26 q-41 0 -67.5 26.5t-26.5 68.5zM455 1690q0 42 26 68t68 26q41 0 67.5 -26.5t26.5 -67.5q0 -42 -26.5 -68.5t-67.5 -26.5q-43 0 -68.5 26t-25.5 69z" />
<glyph unicode="&#x2c6;" horiz-adv-x="737" d="M135 1311l178 252q11 20 41 20h31q27 0 41 -20l176 -252q20 -29 -4 -51l-23 -21q-29 -23 -53 4l-153 172l-154 -172q-24 -27 -53 -4l-23 21q-24 22 -4 51z" />
<glyph unicode="&#x2dc;" horiz-adv-x="788" d="M123 1313v53q0 78 53.5 121.5t124.5 35.5t119 -63l51 -59q25 -28 52.5 -17.5t27.5 39.5v45q0 37 37 37h41q37 0 37 -37v-55q0 -77 -53 -120.5t-124 -35.5t-120 64l-52 57q-25 28 -52 18.5t-27 -38.5v-45q0 -37 -37 -37h-41q-37 0 -37 37z" />
<glyph unicode="&#x2000;" horiz-adv-x="931" />
<glyph unicode="&#x2001;" horiz-adv-x="1862" />
<glyph unicode="&#x2002;" horiz-adv-x="931" />
<glyph unicode="&#x2003;" horiz-adv-x="1862" />
<glyph unicode="&#x2004;" horiz-adv-x="620" />
<glyph unicode="&#x2005;" horiz-adv-x="465" />
<glyph unicode="&#x2006;" horiz-adv-x="310" />
<glyph unicode="&#x2007;" horiz-adv-x="310" />
<glyph unicode="&#x2008;" horiz-adv-x="232" />
<glyph unicode="&#x2009;" horiz-adv-x="372" />
<glyph unicode="&#x200a;" horiz-adv-x="103" />
<glyph unicode="&#x2010;" horiz-adv-x="544" d="M41 545v55q0 43 45 43h375q43 0 43 -43v-55q0 -45 -43 -45h-375q-45 0 -45 45z" />
<glyph unicode="&#x2011;" horiz-adv-x="544" d="M41 545v55q0 43 45 43h375q43 0 43 -43v-55q0 -45 -43 -45h-375q-45 0 -45 45z" />
<glyph unicode="&#x2012;" horiz-adv-x="544" d="M41 545v55q0 43 45 43h375q43 0 43 -43v-55q0 -45 -43 -45h-375q-45 0 -45 45z" />
<glyph unicode="&#x2013;" horiz-adv-x="1134" d="M41 545v55q0 43 45 43h965q43 0 43 -43v-55q0 -45 -43 -45h-965q-45 0 -45 45z" />
<glyph unicode="&#x2014;" horiz-adv-x="2152" d="M41 545v55q0 43 45 43h1982q43 0 43 -43v-55q0 -45 -43 -45h-1982q-45 0 -45 45z" />
<glyph unicode="&#x2018;" horiz-adv-x="393" d="M90 1241l100 395q8 41 46 41h28q46 0 43 -47l-24 -397q-3 -43 -47 -43h-105q-24 0 -35 13.5t-6 37.5z" />
<glyph unicode="&#x2019;" horiz-adv-x="393" d="M92 1237l23 399q6 41 47 41h106q23 0 34 -14t5 -37l-100 -395q-8 -41 -45 -41h-29q-47 0 -41 47z" />
<glyph unicode="&#x201a;" horiz-adv-x="393" d="M92 -209l23 399q6 41 47 41h106q23 0 34 -14t5 -37l-100 -395q-8 -41 -45 -41h-29q-47 0 -41 47z" />
<glyph unicode="&#x201c;" horiz-adv-x="659" d="M94 1241l101 395q8 41 45 41h28q47 0 41 -47l-22 -397q-6 -43 -47 -43h-107q-23 0 -34 14t-5 37zM360 1241l99 395q11 41 45 41h31q43 0 40 -47l-24 -397q-3 -43 -47 -43h-105q-25 0 -35 14t-4 37z" />
<glyph unicode="&#x201d;" horiz-adv-x="659" d="M92 1237l23 399q6 41 47 41h106q23 0 34 -14t5 -37l-100 -395q-8 -41 -45 -41h-29q-47 0 -41 47zM356 1237l25 399q3 41 47 41h104q24 0 35 -13.5t6 -37.5l-100 -395q-8 -41 -45 -41h-29q-46 0 -43 47z" />
<glyph unicode="&#x201e;" horiz-adv-x="659" d="M92 -209l23 399q6 41 47 41h106q23 0 34 -14t5 -37l-100 -395q-8 -41 -45 -41h-29q-47 0 -41 47zM356 -209l25 399q3 41 47 41h104q24 0 35 -13.5t6 -37.5l-100 -395q-8 -41 -45 -41h-29q-46 0 -43 47z" />
<glyph unicode="&#x2022;" horiz-adv-x="643" d="M82 741q0 106 67 173t173 67t172.5 -67t66.5 -173t-66.5 -172.5t-172.5 -66.5t-173 66.5t-67 172.5z" />
<glyph unicode="&#x2026;" horiz-adv-x="1425" d="M82 104q0 51 32 83t83 32t82.5 -32t31.5 -83t-31.5 -82.5t-82.5 -31.5t-83 31.5t-32 82.5zM598 104q0 51 32 83t83 32t82.5 -32t31.5 -83t-31.5 -82.5t-82.5 -31.5t-83 31.5t-32 82.5zM1114 104q0 51 32 83t83 32t82.5 -32t31.5 -83t-31.5 -82.5t-82.5 -31.5t-83 31.5 t-32 82.5z" />
<glyph unicode="&#x202f;" horiz-adv-x="372" />
<glyph unicode="&#x2039;" horiz-adv-x="493" d="M82 571l164 406q11 31 45 31h80q26 0 35.5 -20.5t1.5 -41.5l-152 -375l152 -376q8 -21 -1.5 -40.5t-35.5 -19.5h-80q-35 0 -45 29z" />
<glyph unicode="&#x203a;" horiz-adv-x="493" d="M86 195l152 376l-152 375q-8 21 1.5 41.5t35.5 20.5h80q34 0 45 -31l164 -406l-164 -407q-10 -29 -45 -29h-80q-26 0 -35.5 19.5t-1.5 40.5z" />
<glyph unicode="&#x205f;" horiz-adv-x="465" />
<glyph unicode="&#x20ac;" horiz-adv-x="866" d="M41 590v55q0 43 45 43h70v107h-70q-45 0 -45 45v55q0 43 45 43h70v254q0 155 68 228t245 73q91 0 153 -19t97 -59t50 -93.5t15 -129.5v-117q0 -45 -43 -45h-84q-43 0 -43 45v117q0 80 -31 119t-114 39t-113 -39t-30 -119v-254h223q43 0 43 -43v-55q0 -45 -43 -45h-223 v-107h223q43 0 43 -43v-55q0 -45 -43 -45h-223v-254q0 -80 30 -119t113 -39t114 39t31 119v119q0 43 43 43h84q43 0 43 -43v-119q0 -76 -15 -129.5t-50 -93.5t-97 -59t-153 -19q-177 0 -245 73t-68 228v254h-70q-45 0 -45 45z" />
<glyph unicode="&#x2122;" horiz-adv-x="997" d="M0 1417v29q0 37 39 37h340q37 0 37 -37v-29q0 -39 -37 -39h-103v-598q0 -39 -36 -39h-62q-39 0 -39 39v598h-100q-39 0 -39 39zM457 780v666q0 37 39 37h102q19 0 27.5 -8t11.5 -27l41 -209l24 -174h9l24 174l41 209q3 19 11.5 27t27.5 8h105q36 0 36 -37v-666 q0 -39 -36 -39h-43q-39 0 -39 39v342l10 146h-8l-62 -359q-4 -28 -35 -28h-71q-30 0 -37 28l-60 359h-8l8 -146v-342q0 -39 -36 -39h-43q-39 0 -39 39z" />
<glyph unicode="&#xe000;" horiz-adv-x="1136" d="M0 0v1137h1137v-1137h-1137z" />
</font>
</defs>
</svg>
